<?xml version="1.0" encoding="UTF-8"?>
<svg id="b" data-name="圖層 2" xmlns="http://www.w3.org/2000/svg" width="120" height="80" viewBox="0 0 120 80">
  <g id="c" data-name="圖層 1">
    <g>
      <polygon points="120 40 108.4 46.9 114.8 56.4 99.9 59.6 99.9 69.9 84.4 68.8 78.1 78.3 64.6 73.1 53 80 43.8 71.6 29 74.8 25.8 64.7 10.3 63.6 13.5 53.5 0 48.4 9.1 40 0 31.6 13.5 26.5 10.3 16.4 25.8 15.3 29 5.2 43.8 8.4 53 0 64.6 6.9 78.1 1.7 84.4 11.2 99.9 10.1 99.9 20.4 114.8 23.6 108.4 33.1 120 40" fill="#ff7f00" stroke-width="0"/>
      <g>
        <path d="M32.9,41.1c0-10.1,5.1-14.5,10.6-14.5s5.8,1.4,7.4,3.1l-2.9,3.2c-1-1.1-2.6-2-4.2-2-3.1,0-5.7,2.3-5.9,9.2,1.5-1.9,3.8-3,5.6-3,4.6,0,7.9,2.6,7.9,8.2s-3.9,8.8-8.6,8.8-9.8-4-9.8-13.1ZM38,43.9c.5,4.5,2.4,6.2,4.6,6.2s3.7-1.6,3.7-4.8-1.5-4.4-3.9-4.4-3.1.8-4.4,2.9Z" fill="#fff" stroke-width="0"/>
        <path d="M54,34.4c0-5.5,2.7-8.6,6.6-8.6s6.7,3.1,6.7,8.6-2.8,8.7-6.7,8.7-6.6-3.2-6.6-8.7ZM63.4,34.4c0-4-1.3-5.5-2.8-5.5s-2.8,1.5-2.8,5.5,1.2,5.6,2.8,5.6,2.8-1.6,2.8-5.6ZM76.3,25.8h3.2l-14.8,28.3h-3.2l14.8-28.3ZM73.8,45.5c0-5.5,2.8-8.6,6.6-8.6s6.7,3.1,6.7,8.6-2.8,8.7-6.7,8.7-6.6-3.2-6.6-8.7ZM83.3,45.5c0-4-1.3-5.6-2.8-5.6s-2.8,1.5-2.8,5.6,1.2,5.6,2.8,5.6,2.8-1.6,2.8-5.6Z" fill="#fff" stroke-width="0"/>
      </g>
    </g>
  </g>
</svg>