<?xml version="1.0" encoding="UTF-8"?>
<svg id="b" data-name="圖層 2" xmlns="http://www.w3.org/2000/svg" width="120" height="80" viewBox="0 0 120 80">
  <g id="c" data-name="圖層 1">
    <g>
      <polygon points="120 40 108.4 46.9 114.8 56.4 99.9 59.6 99.9 69.9 84.4 68.8 78.1 78.3 64.6 73.1 53 80 43.8 71.6 29 74.8 25.8 64.7 10.3 63.6 13.5 53.5 0 48.4 9.1 40 0 31.6 13.5 26.5 10.3 16.4 25.8 15.3 29 5.2 43.8 8.4 53 0 64.6 6.9 78.1 1.7 84.4 11.2 99.9 10.1 99.9 20.4 114.8 23.6 108.4 33.1 120 40" fill="#ff7f00" stroke-width="0"/>
      <g>
        <path d="M16.7,40.2c0-8.8,3.6-13.4,9.1-13.4s9.1,4.6,9.1,13.4-3.5,13.7-9.1,13.7-9.1-4.8-9.1-13.7ZM29.8,40.2c0-7.2-1.7-9.3-4-9.3s-4.1,2-4.1,9.3,1.7,9.5,4.1,9.5,4-2.2,4-9.5Z" fill="#fff" stroke-width="0"/>
        <path d="M39,50.4c0-2,1.4-3.5,3.3-3.5s3.3,1.5,3.3,3.5-1.4,3.5-3.3,3.5-3.3-1.5-3.3-3.5Z" fill="#fff" stroke-width="0"/>
        <path d="M49.2,50.2l2.5-3.4c1.6,1.6,3.5,2.8,6,2.8s4.6-1.3,4.6-3.5-1.6-4.1-7.4-4.1v-3.8c4.9,0,6.5-1.6,6.5-3.9s-1.3-3.2-3.6-3.2-3.5.9-5.1,2.4l-2.7-3.3c2.3-2,4.9-3.3,8-3.3,5.2,0,8.7,2.5,8.7,7s-1.7,4.8-4.5,5.9v.2c3,.8,5.3,3,5.3,6.4s-4.3,7.6-9.4,7.6-7.1-1.6-9-3.7Z" fill="#fff" stroke-width="0"/>
        <path d="M70.7,34.5c0-5.4,2.7-8.4,6.5-8.4s6.6,3.1,6.6,8.4-2.7,8.5-6.6,8.5-6.5-3.1-6.5-8.5ZM80,34.5c0-3.9-1.2-5.4-2.8-5.4s-2.8,1.5-2.8,5.4,1.2,5.5,2.8,5.5,2.8-1.6,2.8-5.5ZM92.7,26.1h3.1l-14.6,27.8h-3.1l14.6-27.8ZM90.2,45.4c0-5.4,2.7-8.5,6.5-8.5s6.6,3.1,6.6,8.5-2.8,8.5-6.6,8.5-6.5-3.2-6.5-8.5ZM99.5,45.4c0-3.9-1.2-5.5-2.8-5.5s-2.8,1.5-2.8,5.5,1.2,5.5,2.8,5.5,2.8-1.6,2.8-5.5Z" fill="#fff" stroke-width="0"/>
      </g>
    </g>
  </g>
</svg>