<?xml version="1.0" encoding="UTF-8"?>
<svg id="b" data-name="圖層 2" xmlns="http://www.w3.org/2000/svg" width="407" height="126" viewBox="0 0 407 126">
  <g id="c" data-name="圖層 1">
    <g>
      <rect x="19.9" y="29.1" width="387.1" height="67.4" rx="33.7" ry="33.7" fill="#f5281e" stroke-width="0"/>
      <g>
        <path d="M207,58.7v7.2h-51.5v-7.2h51.5Z" fill="#fff" stroke-width="0"/>
        <path d="M241.1,55.8c-.4,8.3-1.3,15-3,20.3,4,5.2,9.5,6.6,15.7,6.6s7.7,0,10,0c-.7,1.3-1.5,3.9-1.8,5.4h-8.5c-7.1,0-13-1.4-17.5-6.6-1.8,3.3-4,5.9-6.8,7.9-.7-1.5-1.9-3.4-2.9-4.5.7-.5,1.4-1.1,2.1-1.7-5.7,1.6-11.6,3-16,4.2l-1.1-6c2-.4,4.5-.9,7.2-1.5v-14.1h-6.2v-5.7h6.2v-3.9h-3.5v-2.6c-.8,1-1.6,1.8-2.5,2.5-.2-1.5-1.3-5.2-1.9-6.8,3.7-3,7.6-7.8,9.9-13l4,2.3c-.3.7-.6,1.3-1,2,2.8,2,5.5,4.3,7.2,6.2l-2.2,5.5-.4-.5v4.4h-5.1v3.9h6.1v5.7h-6.1v13.2l6.5-1.4.2,4c1.1-1.4,2.1-3.1,3-5.1-1.4-2.6-2.6-5.9-3.6-9.8l4.3-1.6c.4,1.7.8,3.2,1.3,4.5.6-2.6,1-5.5,1.3-8.6h-4.6c-.4.4-.8.7-.8,1.1-.4-1.1-1.8-3.2-2.6-4.3,1-.3,2.6-2,3.5-3.8s2-4.7,3.1-8.6h-5.2v-6.1h6.7l1.8-.7,3.5,2.2c-1.4,5.2-3.3,10.5-5.2,14.8h1.8c0,0,3,.2,3,.2ZM216.2,67.7c.7,3,1.5,7,1.7,9.6l-3.8,1.4c-.2-2.7-.8-6.7-1.5-9.8l3.6-1.2ZM227.2,50.8c-1.7-1.8-3.9-3.8-6.1-5.4-1.2,1.9-2.4,3.8-3.7,5.4h9.8ZM223.2,76.5c.6-2.6,1.3-6.7,1.7-9.4l4,1.3c-.9,3.3-1.8,6.9-2.5,9.4l-3.2-1.2ZM247.4,45.2h-5.3v-4.5h5.3v-3.6h5v3.6h7.8v7.4h3.1v4.8h-3.1v7.4h-7.8v2.8h8.4v5h-8.4v3h9.5v4.9h-9.5v5h-5v-5h-6.9v-4.9h6.9v-3h-5.5v-5h5.5v-2.8h-5.3v-4.5h5.3v-2.9h-7.3v-4.8h7.3v-2.9ZM252.4,45.2v2.9h3.2v-2.9h-3.2ZM255.6,52.9h-3.2v2.9h3.2v-2.9Z" fill="#fff" stroke-width="0"/>
        <path d="M276.2,58.6v30.4h-6.5v-50.2h21.6v19.8h-15.1ZM276.2,43.6v2.9h8.8v-2.9h-8.8ZM285,53.8v-3h-8.8v3h8.8ZM301.4,76.4v11.5h-5.8v-11.5h-5.4c-.6,3.9-2.4,9.3-7.2,12.6-1-1.2-3-2.9-4.3-3.8,3.6-2.2,5.2-5.9,5.7-8.7h-5.7v-5.4h5.9v-4.2h-5.1v-5.3h27.1v5.3h-5.3v4.2h6.2v5.4h-6.2ZM295.6,71v-4.2h-5.2v4.2h5.2ZM317,81.2c0,3.4-.6,5.3-2.6,6.3-2,1.1-4.9,1.3-9.2,1.3-.2-1.8-1.1-4.9-2-6.6,2.5.1,5.3.1,6.1,0,.9,0,1.2-.3,1.2-1.1v-22.4h-15.4v-19.9h22v42.4ZM301.3,43.6v2.9h9.1v-2.9h-9.1ZM310.4,53.9v-3.1h-9.1v3.1h9.1Z" fill="#fff" stroke-width="0"/>
        <path d="M374.6,43v6.3h-40.2v7.8c0,9.1-.8,23.1-6.1,31.9-1.3-1.1-4.3-3.2-5.9-3.9,4.7-8.1,5.1-19.9,5.1-28.1v-14.1h21c-.5-1.7-1.2-3.4-2-4.9l6.7-1.4c1.2,1.9,2.2,4.3,2.8,6.3h18.5ZM356.2,56.2h17.1v6h-17.1v5.2h14.5v21h-6.8v-2.2h-19.7v2.2h-6.6v-21h11.7v-16.4h6.9v5.2ZM363.8,73.4h-19.7v6.8h19.7v-6.8Z" fill="#fff" stroke-width="0"/>
      </g>
      <g>
        <polygon points="150 63 135.5 73.9 143.4 88.8 124.9 93.8 124.9 110.1 105.5 108.4 97.6 123.2 80.7 115.1 66.2 126 54.8 112.8 36.2 117.9 32.2 102 12.8 100.2 16.9 84.3 0 76.2 11.4 63 0 49.8 16.9 41.7 12.8 25.8 32.2 24 36.2 8.1 54.8 13.2 66.2 0 80.7 10.9 97.6 2.8 105.5 17.6 124.9 15.9 124.9 32.2 143.4 37.2 135.5 52.1 150 63" fill="#f5281e" stroke-width="0"/>
        <g>
          <path d="M24.4,65.6c0-18.3,9.1-26.2,19.1-26.2s10.4,2.5,13.3,5.6l-5.2,5.9c-1.7-1.9-4.7-3.5-7.6-3.5-5.7,0-10.3,4.2-10.7,16.6,2.7-3.4,6.9-5.4,10.1-5.4,8.3,0,14.2,4.7,14.2,14.8s-7.1,16-15.5,16-17.7-7.2-17.7-23.6ZM33.6,70.6c.9,8.1,4.3,11.2,8.3,11.2s6.7-2.9,6.7-8.6-2.8-7.9-7.1-7.9-5.5,1.4-8,5.3Z" fill="#fff" stroke-width="0"/>
          <path d="M84.6,74.8c-.8-1.7-2.4-4.3-4-6.7v26h-7.7v-23.9c-2.1,5.1-4.7,9.9-7.3,13.2-.7-2.3-2.4-5.5-3.7-7.5,3.7-4.3,7.4-11.4,9.9-17.8h-8.5v-7.4h9.5v-7.7c-2.8.5-5.5,1-8.1,1.3-.4-1.8-1.3-4.5-2.2-6.1,7.3-1.3,15.5-3.2,20.7-5.5l5.3,6.1c-2.4.9-5.1,1.8-7.9,2.5v9.4h7.1v7.4h-7.1v1.9c1.8,1.5,7.3,7.3,8.5,8.7l-4.5,6.2ZM100,44.6c-1.5,8.3-4.1,16.5-7.5,21.6-1.5-1.1-4.9-2.9-6.8-3.7,3.5-4.6,5.7-11.9,6.7-19.2l7.6,1.3ZM122.3,66.6c-4.8,15.9-14.6,23.2-31.8,27.4-.7-2.4-2.6-5.5-4.3-7.4,15.3-2.7,24.2-8.6,28.3-21.9l7.7,1.9ZM110.3,66.1c0,3.7-.7,5.8-2.9,7.1-2.2,1.3-5.1,1.5-9.3,1.5-.3-2.3-1.4-5.7-2.5-7.8,2.3,0,4.8,0,5.7,0s1.1-.3,1.1-1V31.9h7.9v34.2ZM118.2,64.1c-.7-5.3-3.3-13.3-6.3-19.2l6.8-2.3c3.2,5.9,5.9,13.7,6.8,19l-7.3,2.5Z" fill="#fff" stroke-width="0"/>
        </g>
      </g>
    </g>
  </g>
</svg>