<?xml version="1.0" encoding="UTF-8"?>
<svg id="b" data-name="圖層 2" xmlns="http://www.w3.org/2000/svg" width="681.9" height="103.2" viewBox="0 0 681.9 103.2">
  <g id="c" data-name="圖層 1">
    <g>
      <path d="M629.2,100.7H52.6c-19.2-19.2-29.9-29.9-49.1-49.1h0C22.7,32.4,33.5,21.7,52.6,2.5h576.6c19.2,19.2,29.9,29.9,49.1,49.1h0c-19.2,19.2-29.9,29.9-49.1,49.1Z" style="fill: #f5281e; stroke: #ffd62c; stroke-miterlimit: 10; stroke-width: 5px;"/>
      <g>
        <path d="M324,50.8c0-.9.4-1.3,1.2-1.3h6.7c.8,0,1.3.4,1.3,1.2v10.3c0,.7.4,1.3,1.2,1.8,2.9,1.4,7.8,2.1,14.6,1.9h5.2c2.4,0,4.7-.3,6.9-.6.8-.2,1,.2.7,1-.5,1-.8,1.9-1.1,2.9-.2.8-.8,1.3-1.6,1.3h-13.3c-2.8-.1-5.2-.3-7-.6-2-.2-4.2-1.1-6.4-2.7-.7-.5-1.4-.3-2.1.5l-2.1,2.4c-.7.8-1.3.8-1.8,0-.4-.7-.9-1.4-1.4-2.1-.6-.8-.5-1.5.2-2l2.4-1.3c.7-.4,1.1-.9,1.1-1.5v-6.9c0-.7-.3-1-1-1h-2.4c-.8,0-1.2-.4-1.2-1.2v-2ZM326,40.3c.8-.8,1.6-.9,2.4-.5.8.5,1.7,1.2,2.5,2,.9.8,1,1.6.4,2.3l-1.2,1.5c-.7.8-1.4.8-2.2,0-.9-.8-1.8-1.6-2.7-2.4-.8-.7-.8-1.4,0-2.3l.7-.7ZM329.2,33.3c.7-.7,1.4-.8,2.1-.4.9.6,1.9,1.3,2.8,2.1.9.8,1,1.5.4,2.3-.5.5-.9,1.1-1.3,1.6-.6.8-1.3.7-2.1,0-.9-.9-1.9-1.7-2.8-2.4-.8-.6-.8-1.4,0-2.3l.8-.8ZM339.2,33.5c.4-.9.9-1.2,1.6-.9l2,.7c.8.3,1.1.9.8,1.7l-.2.6c-.2.7,0,1,.6,1h2.5c.7,0,1.1-.4,1.4-1.2l.4-1.7c.2-.9.7-1.2,1.4-1l2.5.7c.9.3,1.2.8.9,1.6,0,.1,0,.2-.1.3-.3.9-.1,1.3.5,1.3h6c.8,0,1.3.4,1.3,1.2v1.7c0,.8-.4,1.3-1.2,1.3h-5.9c-.7,0-1,.3-1,1v1c0,.7.3,1,1,1h4.6c.8,0,1.3.4,1.3,1.2v1.7c0,.8-.4,1.3-1.2,1.3h-4.6c-.7,0-1,.3-1,1v.9c0,.7.3,1,1,1h4.6c.8,0,1.3.4,1.3,1.2v1.7c0,.8-.4,1.3-1.2,1.3h-4.6c-.7,0-1,.3-1,1v1.5c0,.7.3,1,1,1h6c.8,0,1.3.4,1.3,1.2v1.8c0,.8-.4,1.3-1.2,1.3h-20.9c-.8,0-1.3-.4-1.3-1.2v-14.7c0-.7-.3-.7-.8-.1-.6.6-1.4.6-2.3,0l-1.3-1c-.8-.6-.9-1.4-.2-2.2,2.9-3.5,5-6.8,6.2-9.9ZM348,41.7c0-.7-.3-1-1-1h-3.9c-.7,0-1,.3-1,1v1c0,.7.3,1,1,1h3.9c.7,0,1-.3,1-1v-1ZM348,48.9c0-.7-.3-1-1-1h-3.9c-.7,0-1,.3-1,1v.9c0,.7.3,1,1,1h3.9c.7,0,1-.3,1-1v-.9ZM348,56c0-.7-.3-1.1-.9-1.1h-3.9c-.7,0-1,.3-1,1v1.5c0,.7.3,1,1,1h3.9c.7,0,1-.3,1-1v-1.4Z" style="fill: #fff; stroke: #fff; stroke-miterlimit: 10; stroke-width: .2px;"/>
        <path d="M373.8,35.1c0-.9.4-1.3,1.1-1.3h13.3c.8,0,1.3.4,1.4,1.2.6,4.3,1.6,8.6,2.9,12.7,1.7,5.1,4.1,9.5,7.3,13.1,1.1,1.2,2.2,2.4,3.5,3.5.7.7.8,1.4,0,2.3l-1.7,2.1c-.7.8-1.4.9-2.2.2-2.4-2-4.4-4.5-6.2-7.3-2.1-3.4-3.9-7.7-5.6-12.9-.2-.7-.5-.7-.8.2-3.1,8.1-8.6,14.9-16.4,20.3-.8.5-1.4.3-1.9-.5-.5-.8-.9-1.6-1.4-2.5-.5-.8-.3-1.6.5-2.1,5.5-3.8,9.5-7.8,12-12.1,2.4-3.8,4.2-7.7,5.6-11.5.7-1.6.4-2.2-.8-2h-9.4c-.8,0-1.3-.4-1.3-1.2v-2.2Z" style="fill: #fff; stroke: #fff; stroke-miterlimit: 10; stroke-width: .2px;"/>
        <path d="M412.5,33.1c.3-.9.9-1.2,1.7-.9l1.7.5c.9.3,1.3.6,1.3.8-.1.4,0,.6.6.6h8.7c.8,0,1.3.4,1.3,1.2v1.9c0,.8-.4,1.3-1.2,1.3h-3.5c-.7,0-1,.4-1.1,1.1,0,.7.3,1.1,1,1.1h4.5c.8,0,1.3.4,1.3,1.2v1.8c0,.8-.4,1.3-1.2,1.3h-4.5c-.9,0-.9.2,0,.7,1.2.6,2.4,1.3,3.6,2.1,1,.7,1.1,1.4.5,2.3l-.3.4c-.5.7-.5,1,.2,1h14.4c.8,0,1.3.4,1.3,1.2v16.2c0,.8-.4,1.3-1.2,1.3h-2.3c-.8,0-1.3-.2-1.3-.7s-.3-.8-1-.8h-17.7c-.7,0-1,.2-1,.7s-.4.8-1.2.8h-2.3c-.8,0-1.3-.4-1.3-1.2v-15.7c0-.7-.4-.8-1.2-.6-.8.3-1.5,0-2-.8l-.7-1.3c-.6-1-.5-1.7.4-2,1.7-.6,3.2-1.4,4.5-2.5.8-.8.8-1.1.1-1.1h-3.6c-.8,0-1.3-.4-1.3-1.2v-1.8c0-.8.3-1.3,1-1.3s.6-.3-.3-1c-.8-.6-.9-1.3-.2-2.1.8-1.1,1.6-2.6,2.5-4.4ZM417.3,39.7c0-.7-.3-1.1-1.1-1.1s-1.5.4-1.9,1.1c-.4.7-.3,1.1.3,1.1h1.5c.7,0,1-.3,1.1-1ZM420.3,49.1c-.8-.6-1.7-.4-2.5.4-.5.4-1.1.8-1.6,1.1-.8.6-.9.9,0,.9h6.5c.7,0,.6-.3-.2-1-.7-.5-1.3-1-2-1.4ZM437.8,57.2c0-.7-.3-1.1-.9-1.1h-17.8c-.7,0-1,.3-1,1s.3,1,1,1h17.7c.7,0,1-.3,1-.9ZM437.8,63.5c0-.8-.3-1.1-.9-1.1h-17.7c-.7,0-1,.4-1,1.1s.3,1.1,1,1.1h17.7c.7,0,1-.4,1-1.1ZM429.5,35.6c0-.8.4-1.3,1.2-1.3h13.3c.8,0,1.3.4,1.3,1.2v12.9c0,.8-.4,1.3-1.2,1.3h-13.3c-.8,0-1.2-.4-1.2-1.2v-12.9ZM440.5,39.8c0-.7-.3-1.1-.9-1.1h-4.3c-.7,0-1,.3-1,1v4.6c0,.7.3,1,1,1h4.2c.7,0,1-.3,1-1v-4.6Z" style="fill: #fff; stroke: #fff; stroke-miterlimit: 10; stroke-width: .2px;"/>
        <path d="M452.1,62.9c.3-.9.9-1.3,1.7-1l2.1.7c.9.3,1.2.9.9,1.7-.4,1.3-.9,2.6-1.4,3.9-.4.8-1.1,1-2,.6l-1.6-.8c-1-.5-1.3-1.2-.8-2.1.5-1,.9-2,1.2-3ZM457.7,32.9c0-.5.4-.7,1.1-.7h2c.8,0,1.3.2,1.3.6s.3.7,1,.7h3.9c.8,0,1.3.4,1.3,1.2v1.1c0,.8-.4,1.3-1.2,1.3h-3.9c-.7,0-1,.2-1,.5s.3.5,1,.5h3.2c.8,0,1.3.4,1.3,1.2v.9c0,.8-.4,1.3-1.2,1.3h-3.2c-.7,0-1,.1-1,.4,0,.3.3.4,1,.4l3.4-.2c1,0,1.5.4,1.6,1.2,0,.2.1.5.1.7.1,1-.2,1.5-1.1,1.6-1.3,0-2.7.2-4.1.3-.7,0-1,.3-1,.7s-.4.7-1.2.7h-1.9c-.8,0-1.3-.2-1.3-.5s-.3-.5-1-.5l-3.8.2c-.8,0-1.3-.3-1.5-1.1l-.2-1.4c-.2-.9-.1-1.3,0-1.3l5.4-.2c.7,0,1-.2,1-.5,0-.3-.4-.5-1-.5h-3.1c-.8,0-1.3-.4-1.3-1.2v-.9c0-.8.4-1.3,1.2-1.3h3.2c.7,0,1-.2,1-.5s-.3-.5-1-.5h-4.1c-.8,0-1.3-.4-1.3-1.2v-1.1c0-.8.4-1.3,1.2-1.3h4.1c.7,0,1-.2,1-.6ZM454.4,49.1c0-.9.4-1.3,1.2-1.3h27.2c.8,0,1.3.4,1.3,1.2v2.4c0,.7.3,1,1,1h1.8c.8,0,1.3.4,1.3,1.2v.9c0,.8-.4,1.3-1.2,1.3h-1.8c-.7,0-1,.3-1,1v2.5c0,.8-.4,1.3-1.2,1.3h-10.8c-.7,0-.7.4-.1,1.2l.3.4c.5.9.4,1.6-.5,2.1-.4.2-.8.4-1.2.7-.7.5-.6.7.4.7h2.7c.6-.2,1.1-.7,1.3-1.5,0-.7.6-.8,1.5-.3l1.8,1c.8.4,1.2,1.1,1.1,1.9-.2,1.3-.8,2.1-1.6,2.7-.8.2-2.1.3-3.7.4h-8.9c-1.1,0-2.3-.2-3.4-.3-1-.3-1.7-.9-2.2-1.8-.4-1.2-.6-2.9-.5-5,0-.8.4-1.3,1.2-1.3h2.3c.8,0,1.3.4,1.3,1.3-.3,1.7.3,2.7,1.9,2.9.7,0,1.5.1,2.3,0,.7,0,.8-.4.2-1.3l-.8-1.1c-.7-.8-.7-1.5,0-1.9.8-.5.7-.8-.2-.8h-11.6c-.8,0-1.3-.4-1.3-1.2v-1.2c0-.8.4-1.3,1.2-1.3h23.1c.7,0,1-.2,1-.5s-.3-.5-1-.5h-26.1c-.8,0-1.3-.4-1.3-1.2v-.9c0-.8.4-1.3,1.2-1.3h26.1c.7,0,1-.1,1-.4,0-.3-.3-.5-1-.5h-22.9c-.8,0-1.2-.4-1.2-1.2v-1.2ZM476.1,32.9c0-.5.4-.7,1.1-.7h1.9c.8,0,1.3.2,1.3.6s.3.7,1,.7h3.9c.8,0,1.3.4,1.3,1.2v1.1c0,.8-.4,1.3-1.2,1.3h-3.9c-.7,0-1,.2-1,.5s.3.5,1,.5h3c.8,0,1.3.4,1.3,1.2v.9c0,.8-.4,1.3-1.2,1.3h-3c-.7,0-1,.2-1,.5s.3.5,1,.5h4.6c.8,0,1.3.4,1.3,1.2v1.2c0,.8-.4,1.3-1.2,1.3h-4.6c-.7,0-1,.2-1,.5s-.4.5-1.2.5h-1.8c-.8,0-1.3-.2-1.3-.5s-.3-.5-1-.5h-4.5c-.8,0-1.3-.4-1.3-1.2v-1.2c0-.8.4-1.3,1.2-1.3h4.5c.7,0,1-.2,1-.5s-.3-.5-1-.5h-3.2c-.8,0-1.3-.4-1.3-1.2v-.9c0-.8.4-1.3,1.2-1.3h3.2c.7,0,1-.2,1-.5s-.3-.5-1-.5h-3.9c-.8,0-1.3-.4-1.3-1.2v-1.1c0-.8.4-1.3,1.2-1.3h3.9c.7,0,1-.2,1-.6ZM481.6,62.1c1-.7,2-.6,2.8.2.7.7,1.4,1.5,2,2.3.7.9.8,1.7,0,2.3l-1.6,1.3c-.8.7-1.6.6-2.2-.2-.7-1-1.5-2-2.3-3-.7-.8-.7-1.6.1-2.1l1.1-.8Z" style="fill: #fff; stroke: #fff; stroke-miterlimit: 10; stroke-width: .2px;"/>
        <path d="M500.2,33.5c0-.9.4-1.3,1.1-1.3h2.3c.8,0,1.3.4,1.3,1.2v.7c0,.7.3,1,1,1h4.5c.8,0,1.3.4,1.3,1.2v1.7c0,.8-.3,1.3-.9,1.3s-1,.4-1.3,1.2l-.9,3.1c-.2.7,0,1,.7,1h1.8c.8,0,1.3.4,1.3,1.2v1.8c0,.8-.4,1.3-1.2,1.3h-5.3c-.7,0-1,.4-1,1.3s.3,1.4,1,1.4h4.8c.8,0,1.3.4,1.3,1.2v1.8c0,.8-.4,1.3-1.2,1.3h-3.7c-.8,0-.9.3-.3.8,1.3.8,2.5,1.8,3.8,2.7.7.6.8,1.4.1,2.3l-.9,1.3c-.6.8-1.4.8-2.2,0l-1.5-1.5c-.8-.7-1.2-.8-1.2,0v7.5c0,.8-.4,1.3-1.2,1.3h-1.9c-.8,0-1.3-.4-1.3-1.2v-6.7c0-.7-.4-.6-1.1.2-.6.8-1.8,2-3.6,3.6-.8.5-1.4.3-2-.5l-.7-1.3c-.5-.8-.4-1.6.5-2.1,2.2-1.8,3.9-3.5,5-5.1.5-.7.4-1.1-.3-1.1h-3.3c-.8,0-1.3-.4-1.3-1.2v-1.8c0-.8.4-1.3,1.2-1.3h4.5c.7,0,1-.4,1-1.3s-.3-1.4-1-1.4h-5.2c-.8,0-1.3-.4-1.3-1.2v-1.8c0-.8.4-1.3,1.2-1.3h1.7c.7,0,1-.4.9-1.2-.1-1-.3-2-.5-3.1-.1-.7-.6-1-1.3-1s-1.2-.4-1.2-1.2v-1.7c0-.8.4-1.3,1.2-1.3h4.1c.7,0,1-.3,1-1v-.7ZM505.2,40.4c.2-.7,0-1.1-.7-1.1h-3.2c-.7,0-.9.4-.8,1.2l.6,3.1c.2.7.7,1,1.5,1s1.4-.4,1.7-1.2l.9-3ZM515,34.9c4.4-.5,8.1-1.3,11-2.3.8-.3,1.5,0,1.9.8l.9,1.5c.5,1,.4,1.7-.5,1.9-2.7.8-5.6,1.5-8.9,1.9-.7.1-1,.5-1,1.2v3.8c0,.7.3,1,1,1h9.7c.8,0,1.3.4,1.3,1.2v1.8c0,.8-.4,1.3-1.2,1.3h-1c-.7,0-1,.3-1,1v18.7c0,.8-.4,1.3-1.2,1.3h-2.1c-.8,0-1.3-.4-1.3-1.2v-18.7c0-.7-.3-1-1-1h-2.1c-.7,0-1,.4-1.1,1.2,0,5.6-.6,10.2-1.8,13.8-.5,1.5-1.3,3.1-2.2,4.6-.7.9-1.5,1-2.4.2l-.8-.7c-1-.8-1.2-1.7-.6-2.5,1.2-2,2-4.1,2.4-6.2.5-3.3.8-7.1.9-11.4v-11.7c0-.8.4-1.3,1.2-1.4Z" style="fill: #fff; stroke: #fff; stroke-miterlimit: 10; stroke-width: .2px;"/>
        <path d="M537.3,33.6c0-.8.4-1.2,1.2-1.2h28.7c.8,0,1.3.4,1.3,1.2v1.4c0,.8-.4,1.3-1.2,1.3h-11.1c-.7,0-1,.1-1,.4,0,.3.3.5,1,.5h14.1c.8,0,1.3.4,1.3,1.2v5.5c0,.8-.4,1.3-1.2,1.3h-1.9c-.8,0-1.3-.4-1.3-1.2v-1.7c0-.7-.3-1-1-1h-9.9c-.7,0-1,.3-1,1v6c0,.8-.4,1.3-1.2,1.3h-2.2c-.8,0-1.3-.4-1.3-1.2v-6c0-.7-.3-1-1-1h-9.7c-.7,0-1,.3-1,1v1.7c0,.8-.4,1.3-1.2,1.3h-1.9c-.8,0-1.3-.4-1.3-1.2v-5.5c0-.8.4-1.3,1.2-1.3h13.9c.7,0,1-.1,1-.4,0-.3-.3-.5-1-.5h-10.9c-.8,0-1.3-.4-1.3-1.2v-1.5ZM536.8,52c0-.8.4-1.3,1.2-1.3h28.5c.8,0,1.3.4,1.3,1.2v11.1c0,.8-.4,1.3-1.2,1.3h-11c-.7,0-.9.2-.8.6.2.4.6.6,1.2.8.9,0,1.9,0,2.9,0h4.4l3.4-.2c.6,0,1-.4,1.4-1.2.3-1,.9-1.3,1.8-.9l1.4.6c.9.4,1.3,1.1,1,2-.5,1.8-1.4,2.8-2.7,3.2-1.6.4-4.6.7-9.2.7h-5.7l-2.5-.4c-1.4-.4-2.2-1.5-2.4-3.5v-.6c0-.7-.3-1-1-1h-6.6c-.7,0-1,.3-1,.9s-.4.9-1.2.9h-2c-.8,0-1.3-.4-1.3-1.2v-12.9ZM539.4,43.6c0-.9.4-1.3,1.1-1.3h7.6c.8,0,1.3.4,1.3,1.2v.9c0,.8-.4,1.3-1.2,1.3h-7.5c-.8,0-1.3-.4-1.3-1.2v-.9ZM539.4,47.7c0-.8.4-1.3,1.2-1.3h7.6c.8,0,1.3.4,1.3,1.2v.9c0,.8-.4,1.3-1.2,1.3h-7.5c-.8,0-1.3-.4-1.3-1.2v-.9ZM549.9,55.3c0-.4-.4-.6-1-.6h-6.5c-.7,0-1,.2-1,.6s.3.6,1,.6h6.6c.7,0,1-.2,1-.6ZM549.9,59.9c0-.4-.3-.6-.9-.6h-6.6c-.7,0-1,.2-1,.5s.3.6,1,.6h6.6c.7,0,1-.2,1-.5ZM563.2,55.3c0-.4-.4-.6-1-.6h-6.5c-.7,0-1,.2-1,.6s.3.6,1,.6h6.5c.7,0,1-.2,1-.6ZM563.2,59.9c0-.4-.3-.6-.9-.6h-6.6c-.7,0-1,.2-1,.5s.3.6,1,.6h6.5c.7,0,1-.2,1-.5ZM555.8,43.6c0-.9.4-1.3,1.1-1.3h7.9c.8,0,1.3.4,1.3,1.2v.9c0,.8-.4,1.3-1.2,1.3h-7.8c-.8,0-1.3-.4-1.3-1.2v-.9ZM555.8,47.7c0-.8.4-1.3,1.2-1.3h7.9c.8,0,1.3.4,1.3,1.2v.9c0,.8-.4,1.3-1.2,1.3h-7.8c-.8,0-1.3-.4-1.3-1.2v-.9Z" style="fill: #fff; stroke: #fff; stroke-miterlimit: 10; stroke-width: .2px;"/>
        <path d="M592.4,33.5c0-.9.4-1.3,1.1-1.3h2.6c.8,0,1.3.4,1.3,1.2v.7c0,.7.3,1,1,1h13.5c.8,0,1.3.4,1.3,1.2v1.8c0,.8-.4,1.3-1.2,1.3h-6.7c-.7,0-1.1.4-1.4,1.2l-.3,1.1c-.2.7,0,1,.7,1h6.3c.8,0,1.3.4,1.3,1.2v20.8c-.2,2.8-1.7,4.5-4.5,5-.9.1-1.8.2-2.7.1-.4,0-.9-.1-1.4-.1-.9-.1-1.4-.7-1.6-1.7l-.5-2.1c-.2-.9.1-1.2.9-1,.8.2,1.7.3,2.5.4.8.1,1.4,0,1.8-.3.3-.2.6-.7.7-1.4v-15.4c0-.7-.3-1-1-1h-4.9c-.7,0-1,.3-1,1-.2.9.3,1.4,1.4,1.4.3,0,.5-.4.6-1,0-.6.5-.8,1.3-.4l1.7.8c.9.4,1.3,1,1.2,1.8l-.3,1.1c-.2,1-.9,1.5-2,1.5-3.1.4-5.5.1-7.1-.7-1.1-.9-1.5-2.4-1.2-4.6,0-.7-.3-1-1-1h-1.7c-.7,0-1.1.4-1.2,1.2-.3,2-1.3,3.7-3,4.9-.7.5-.6.8.2.8h13c.8,0,1.3.4,1.3,1.2v7.6c0,.8-.4,1.3-1.2,1.3h-10.9c-.7,0-1,.4-1,1.1s-.4,1.2-1.2,1.2h-2c-.8,0-1.3-.4-1.3-1.2v-9.3c0-.7-.3-.9-.8-.8-.5.2-1-.2-1.4-1l-.2-.4c-.5-.8-.7-.8-.7,0v14.6c0,.8-.4,1.3-1.2,1.3h-2.1c-.8,0-1.3-.4-1.3-1.2v-24.6c0-.8.4-1.3,1.2-1.3h5.4c.7,0,1-.4.9-1.2l-.2-1.1c-.2-.7-.6-1-1.3-1h-6.2c-.8,0-1.3-.4-1.3-1.2v-1.8c0-.8.4-1.3,1.2-1.3h13.7c.7,0,1-.3,1-1v-.7ZM587.3,48.3c.2-.7,0-1.1-.7-1.1h-3c-.7,0-1,.3-1,1v2.1c0,.7.4.9,1.2.6,1.7-.5,2.9-1.4,3.5-2.7ZM599,40.6c.2-.7,0-1.1-.7-1.1h-7.4c-.7,0-.9.4-.8,1.2l.2,1.1c.1.7.5,1,1.2,1h5.7c.7,0,1.1-.4,1.4-1.2l.2-1ZM598.8,59.3c0-.7-.3-1-.9-1h-6.6c-.7,0-1,.3-1,.9s.3,1,1,1h6.6c.7,0,1-.3,1-.9Z" style="fill: #fff; stroke: #fff; stroke-miterlimit: 10; stroke-width: .2px;"/>
      </g>
      <polygon points="661.2 51.6 629 17.3 629 85.9 661.2 51.6" style="fill: #ffd62c; stroke-width: 0px;"/>
      <path d="M290.9,87.5H76.2c-6.4-6.4-10-10-16.5-16.5v-38.9c6.4-6.4,10-10,16.5-16.5h214.6c6.4,6.4,10,10,16.5,16.5v38.9c-6.4,6.4-10,10-16.5,16.5Z" style="fill: #fff; stroke-width: 0px;"/>
      <g>
        <path d="M76.5,48c0-.9.5-1.4,1.4-1.4h37c1,0,1.5.5,1.5,1.4v2.7c0,1-.5,1.5-1.4,1.5h-37c-1,0-1.5-.5-1.5-1.4v-2.8Z" style="fill: #f5281e; stroke-width: 0px;"/>
        <path d="M128.4,30.4c.4-1,1.1-1.3,2-1.1l2,.5c1.1.2,1.5.5,1.5.8-.2.4.2,1,1.2,1.5.9.6,1.8,1.2,2.7,1.9.8.7,1.2.6,1.2,0v-1.3c0-1,.5-1.5,1.4-1.5h6.2c1,0,1.5.5,1.5,1.4.4,1.8-.5,5.3-2.8,10.3-.3.8,0,1.1.7,1.1h2c.9,0,1.4.5,1.4,1.4-.4,5.8-1.4,11-2.9,15.4-.3.9-.3,1.6,0,2.2.9,1.3,2.1,2.2,3.4,2.6,4,1.2,9.4,1.5,16.1.8,1,0,1.4.3,1,1.2l-.8,2.2c-.4,1.2-1.1,1.7-2,1.7h-8.2c-2.6,0-5.1-.5-7.5-1.2-1.3-.4-2.6-1.1-3.7-2-.9-.9-1.7-1-2.2-.1l-1.6,2.2c-.8,1-1.7,1-2.7,0-.9-.9-1.8-1.3-2.7-1.1-2.9.7-5.9,1.3-9,1.8-1,.2-1.7-.3-2.1-1.5l-.6-1.5c-.3-1.1,0-1.7,1.1-1.8l2.8-.4c.8-.1,1.3-.5,1.3-1.2v-10.2c0-.8-.4-1.2-1.1-1.2h-2.3c-1,0-1.5-.5-1.5-1.4v-1.9c0-1,.5-1.5,1.4-1.5h2.3c.8,0,1.2-.4,1.2-1.1v-1c0-.8-.5-1.2-1.5-1.2s-1.5-.4-1.5-1.3,0-1.3-.2-1.3c-.1,0-.7-.4-1.6-1.4l-.8-.9c-.8-.8-.6-1.8.4-2.8,2-2.3,3.5-4.7,4.6-7.4ZM125.3,56.1c1-.3,1.7.1,2,1.3.4,1.5.7,3.1,1,4.7.1.9-.3,1.6-1.2,1.9l-.9.2c-1.2.4-1.8,0-1.9-.9-.2-1.7-.5-3.4-.8-5.2-.2-.9.2-1.5,1.2-1.8l.8-.2ZM132.6,36.8c-.8-.7-1.5-.5-2,.4l-1.6,2.2c-.6.8-.6,1.2.1,1.2h6.8c1,0,1.5.5,1.5,1.4v1.9c0,1-.5,1.5-1.4,1.5h-1c-.8,0-1.2.4-1.2,1.1v1c0,.8.4,1.2,1.1,1.2h2.3c1,0,1.5.5,1.5,1.4v1.9c0,1-.5,1.5-1.4,1.5h-2.3c-.8,0-1.2.4-1.2,1.1v5.9c0,1.2.2,1.2.6,0,.4-1.3.8-2.6,1-3.9.2-.9.8-1.3,1.7-1.1l.8.2c.8.2,1.1,0,1-.7s.3-1.1,1.3-1.6l.9-.4c1.1-.5,1.8-.4,1.9.2.2.9.4.8.7-.3,0-1.1.2-2.2.4-3.3,0-.8-.2-1.1-.7-1.1s-.9.2-1.2.7c-.3.5-.9.5-1.8-.1-.3-.2-.6-.4-.9-.6-.9-.6-1.2-1.4-.8-2.3,1.2-2.2,2.3-5.1,3.4-8.4.3-1,0-1.5-.8-1.5s-1.7.5-2.5,1.4l-1.1,1.4c-.8,1-1.6,1.1-2.4.3-.9-.8-1.8-1.6-2.7-2.4ZM140,59.8c-.3-1.1-.6-1.1-.9,0l-.6,2.2c-.4,1.2-1,1.7-2,1.4l-1.5-.4c-.9-.2-1.3,0-1.3.8s.5,1.3,1.4,1.2l1.4-.2c1.1-.2,1.6,0,1.7.5,0,.6.4.6.9,0,1.5-1.8,1.9-3.1,1.3-3.8l-.5-1.5ZM154.3,30.5c0-.8.4-1.2,1.3-1.2h1.9c1,0,1.5.4,1.5,1.1s.4,1.2,1.1,1.2h3.8c1,0,1.5.5,1.5,1.4v3.8c0,.8.2,1.2.6,1.2s.7.5.7,1.4v2c0,1-.2,1.5-.6,1.5s-.7.4-.7,1.1v3.8c0,1-.5,1.5-1.4,1.5h-3.8c-.8,0-1.2.3-1.2,1s.4,1.1,1.1,1.1h3.2c1,0,1.5.5,1.5,1.4v1.8c0,1-.5,1.5-1.4,1.5h-3.2c-.8,0-1.2.3-1.2.9s.4,1,1.1,1h4.1c1,0,1.5.5,1.5,1.4v1.8c0,1-.5,1.5-1.4,1.5h-4.1c-.8,0-1.2.4-1.2,1.1v1c0,1-.5,1.5-1.4,1.5h-1.8c-1,0-1.5-.5-1.5-1.4v-1c0-.8-.4-1.2-1.1-1.2h-3.7c-1,0-1.5-.5-1.5-1.4v-1.8c0-1,.5-1.5,1.4-1.5h3.7c.8,0,1.2-.3,1.2-.9s-.4-1-1.1-1h-2.2c-1,0-1.5-.5-1.5-1.4v-1.8c0-1,.5-1.5,1.4-1.5h2.2c.8,0,1.2-.3,1.2-1s-.4-1.1-1.1-1.1h-1.4c-1,0-1.5-.5-1.5-1.4v-1.5c0-1,.5-1.5,1.4-1.5h1.4c.8,0,1.2-.3,1.2-.9s-.4-1-1.1-1h-3.7c-1,0-1.5-.5-1.5-1.4v-2c0-1,.5-1.5,1.4-1.5h3.7c.8,0,1.2-.3,1.2-.9s-.4-1-1.1-1h-1.4c-1,0-1.5-.5-1.5-1.4v-1.6c0-1,.5-1.5,1.4-1.5h1.4c.8,0,1.2-.4,1.2-1.1ZM160.7,37.1c0-.7-.3-1-.8-1s-.9.3-.9.9.3,1,.8,1,.9-.3.9-.9ZM160.7,43.8c0-.7-.3-1-.8-1s-.9.3-.9.9.3,1,.8,1,.9-.3.9-.9Z" style="fill: #f5281e; stroke-width: 0px;"/>
        <path d="M172.3,31.2c0-1,.5-1.5,1.4-1.5h15.6c1,0,1.5.5,1.5,1.4v14.7c0,1-.5,1.5-1.4,1.5h-11c-.8,0-1.2.4-1.2,1.1v22.6c0,1-.5,1.5-1.4,1.5h-1.9c-1,0-1.5-.5-1.5-1.4V31.2ZM185.8,35.5c0-.6-.4-.9-1.1-.9h-6.4c-.8,0-1.2.3-1.2.8s.4.9,1.1.9h6.4c.8,0,1.2-.3,1.2-.8ZM185.8,41.7c0-.6-.3-.9-1-.9h-6.5c-.8,0-1.2.3-1.2.8s.4.9,1.1.9h6.4c.8,0,1.2-.3,1.2-.8ZM180.3,50.3c0-1,.5-1.5,1.4-1.5h20.6c1,0,1.5.5,1.5,1.4v2c0,1-.5,1.5-1.4,1.5h-2c-.8,0-1.2.4-1.2,1.1v.9c0,.8.4,1.2,1.1,1.2h3c1,0,1.5.5,1.5,1.4v2c0,1-.5,1.5-1.4,1.5h-3c-.8,0-1.2.4-1.2,1.1v6.7c0,1-.5,1.5-1.4,1.5h-2.3c-1,0-1.5-.5-1.5-1.4v-6.7c0-.8-.4-1.2-1.1-1.2h-2.5c-.8,0-1.2.5-1.5,1.4-.4,2.7-2.2,5.1-5.2,7.4-.9.5-1.8.4-2.6-.5l-1.1-1.4c-.7-.8-.5-1.6.5-2.3,1.2-.9,2.1-2,2.7-3.2.4-.8.2-1.3-.5-1.3h-2.2c-1,0-1.5-.5-1.5-1.4v-2c0-1,.5-1.5,1.4-1.5h2.9c.8,0,1.2-.4,1.2-1.2v-.9c0-.8-.3-1.2-1.1-1.2h-1.8c-.9,0-1.4-.5-1.4-1.4v-1.9ZM194,55.4c0-1.1-.3-1.7-1-1.7h-2.1c-.8,0-1.2.4-1.2,1.1v.9c0,.8.4,1.2,1.1,1.2h2c.8,0,1.2-.5,1.2-1.5ZM193.7,31.2c0-1,.5-1.5,1.4-1.5h15.6c1,0,1.5.5,1.5,1.4v35.2c0,1.4-.4,2.6-1.1,3.8-1.7,2.1-4.1,2.8-7.4,2.1-1-.2-1.6-.7-1.8-1.6l-.6-2.7c-.2-.9.1-1.3,1.1-1.1,1.3.3,2.5.4,3.4.3.8-.6,1.1-1.4,1.2-2.6v-15.9c0-.8-.4-1.2-1.1-1.2h-10.7c-1,0-1.5-.5-1.5-1.4v-14.7ZM206.9,35.5c0-.6-.4-.9-1.1-.9h-6.1c-.8,0-1.2.3-1.2.8s.4.9,1.1.9h6.1c.8,0,1.2-.3,1.2-.8ZM206.9,41.7c0-.6-.3-.9-1-.9h-6.2c-.8,0-1.2.3-1.2.8s.4.9,1.1.9h6.1c.8,0,1.2-.3,1.2-.8Z" style="fill: #f5281e; stroke-width: 0px;"/>
        <path d="M239.9,30.9c0-1.1.4-1.6,1.3-1.6h2.8c1,0,1.5.5,1.5,1.5s.4,1.5,1.1,1.5h14.5c1,0,1.5.5,1.5,1.4v2.5c0,1-.5,1.5-1.4,1.5h-31.9c-.8,0-1.2.4-1.2,1.1v14.9c-.2,6.4-1.2,12.1-2.9,17.1-.5,1.2-1.2,1.5-2.1.9l-2.4-1.5c-.9-.6-1.2-1.4-.9-2.3,1.7-5.2,2.6-10.7,2.8-16.5v-17.6c0-1,.5-1.5,1.4-1.5h14.9c.8,0,1.2-.5,1.2-1.5ZM240.1,40.3c0-1,.5-1.5,1.4-1.5h2.7c1,0,1.5.5,1.5,1.4v1.9c0,.8.4,1.2,1.1,1.2h13.1c1,0,1.5.5,1.5,1.4v2.4c0,1-.5,1.5-1.4,1.5h-13.1c-.8,0-1.2.4-1.2,1.1v2.6c0,.8.4,1.2,1.1,1.2h12c1,0,1.5.5,1.5,1.4v16.6c0,1-.5,1.5-1.4,1.5h-2.8c-1,0-1.5-.3-1.5-.9s-.4-1-1.1-1h-16.9c-.8,0-1.2.3-1.2.9s-.5,1-1.4,1h-2.7c-1,0-1.5-.5-1.5-1.4v-16.6c0-1,.5-1.5,1.4-1.5h7.8c.8,0,1.2-.4,1.2-1.1v-12ZM254.5,59.6c0-.8-.4-1.2-1.1-1.2h-17c-.8,0-1.2.4-1.2,1.1v5.2c0,.8.4,1.2,1.1,1.2h16.9c.8,0,1.2-.4,1.2-1.1v-5.1Z" style="fill: #f5281e; stroke-width: 0px;"/>
        <path d="M285.2,33.5c0-1,.4-1.5,1.3-1.5h3.9c.9,0,1.4.5,1.4,1.4-.3,9.4-.6,18.9-.9,28.5,0,.9-.6,1.4-1.5,1.4h-1.8c-.9,0-1.4-.5-1.5-1.4l-.9-28.4ZM285.2,67.9c0-1,.5-1.5,1.4-1.5h3.8c1,0,1.5.5,1.5,1.4v3.6c0,1-.5,1.5-1.4,1.5h-3.8c-.9,0-1.4-.5-1.4-1.4v-3.6Z" style="fill: #f5281e; stroke-width: 0px;"/>
      </g>
    </g>
  </g>
</svg>