<svg xmlns="http://www.w3.org/2000/svg" xmlns:xlink="http://www.w3.org/1999/xlink" width="460" height="412" viewBox="0 0 460 412">
  <defs>
    <clipPath id="clip-path">
      <rect id="矩形_10" data-name="矩形 10" width="460" height="412" transform="translate(2282 4996)" fill="#fff" opacity="0.75"/>
    </clipPath>
  </defs>
  <g id="蒙版组_6" data-name="蒙版组 6" transform="translate(-2282 -4996)" clip-path="url(#clip-path)">
    <g id="storefront" transform="translate(2333 5021.6)">
      <path id="路径_10" data-name="路径 10" d="M334.4,333.5h-8.325a2.775,2.775,0,0,1-2.775-2.775V212.446a2.775,2.775,0,0,0-3.635-2.678,72.787,72.787,0,0,1-19.647,3.316c-.819,0-1.6.035-2.359.035a75.078,75.078,0,0,1-36.665-9.463,5.71,5.71,0,0,0-5.55,0,75.05,75.05,0,0,1-36.658,9.463,73.613,73.613,0,0,1-36.394-9.567,5.7,5.7,0,0,0-5.612,0,75.022,75.022,0,0,1-36.88,9.574,73.669,73.669,0,0,1-36.609-9.712,5.723,5.723,0,0,0-5.661,0,73.669,73.669,0,0,1-36.609,9.712c-.756,0-1.519,0-2.338-.035h-.042a72.782,72.782,0,0,1-20.313-3.531A2.775,2.775,0,0,0,34.7,212.2V330.723a2.775,2.775,0,0,1-2.775,2.775H23.947a11.327,11.327,0,0,0-11.433,10.6A11.1,11.1,0,0,0,23.6,355.7H334.052a11.327,11.327,0,0,0,11.433-10.6A11.1,11.1,0,0,0,334.4,333.5ZM156.8,286.323a2.775,2.775,0,0,1-2.775,2.775H92.975a2.775,2.775,0,0,1-2.775-2.775v-44.4a8.325,8.325,0,0,1,8.325-8.325h49.95a8.325,8.325,0,0,1,8.325,8.325ZM265.024,333.5h-49.95a2.775,2.775,0,0,1-2.775-2.775v-88.8a8.325,8.325,0,0,1,8.325-8.325h38.85a8.325,8.325,0,0,1,8.325,8.325v88.8A2.775,2.775,0,0,1,265.024,333.5Z" transform="translate(0 -19.899)" fill="#608"/>
      <path id="路径_11" data-name="路径 11" d="M343.12,120.931,313.345,52.6c-7.8-16.768-25.606-27.6-45.371-27.6H89.993C70.228,25,52.419,35.836,44.622,52.6L14.846,120.931c-6.244,13.466,2,27.292,2.012,27.3l.194.312c.34.541.943,1.387,1.311,1.929.035.042.062.09.1.139l3.469,4.2a5.172,5.172,0,0,0,.416.451l3.469,3.351.291.25a48.321,48.321,0,0,0,6.514,4.7v.035A51.337,51.337,0,0,0,57.595,171h1.714a52.78,52.78,0,0,0,36-14.09l.229-.215a5.508,5.508,0,0,1,7.555,0l.229.215a53.627,53.627,0,0,0,72.469,0,5.55,5.55,0,0,1,7.541,0,53.634,53.634,0,0,0,72.3.16,5.467,5.467,0,0,1,7.43,0A53.287,53.287,0,0,0,299.345,171h1.727a49.5,49.5,0,0,0,24.281-7.423c.659-.4,1.29-.812,1.929-1.228a49.485,49.485,0,0,0,12.668-12.356l1.207-1.825a5.952,5.952,0,0,0,.333-.583C342.642,145.24,348.816,133.183,343.12,120.931Z" transform="translate(-0.001 0)" fill="#608"/>
    </g>
    <g id="组_5" data-name="组 5" transform="translate(2294.016 5259.674)">
      <rect id="矩形_9" data-name="矩形 9" width="57.372" height="45.419" transform="translate(57.834 61.946)" fill="#fff"/>
      <g id="组_4" data-name="组 4" transform="translate(0)">
        <g id="shopping-cart">
          <g id="路径_8" data-name="路径 8" transform="translate(0)">
            <path d="M 136.2075500488281 142.2075653076172 C 131.2907257080078 142.2075653076172 126.8129959106445 140.3286895751953 123.2584381103516 136.7740936279297 C 119.7038879394531 133.2195892333984 117.8250427246094 128.7418823242188 117.8250427246094 123.825065612793 C 117.8250427246094 121.5917205810547 118.2125549316406 119.4493179321289 118.9688034057617 117.4425354003906 L 66.76875305175781 117.4425354003906 C 67.52499389648438 119.4493179321289 67.91252136230469 121.5917434692383 67.91252136230469 123.825065612793 C 67.91252136230469 128.7418518066406 66.03367614746094 133.2195587158203 62.47909927368164 136.7741241455078 C 58.9245719909668 140.3286895751953 54.44683456420898 142.2075653076172 49.5300178527832 142.2075653076172 C 44.61315155029297 142.2075653076172 40.13541412353516 140.3286895751953 36.58088684082031 136.7740936279297 C 33.02635955810547 133.2195587158203 31.14752006530762 128.7418518066406 31.14752006530762 123.825065612793 C 31.14752006530762 120.0435409545898 32.2588996887207 116.5217208862305 34.38924789428711 113.479866027832 C 32.26642608642578 111.1889190673828 31.14752006530762 108.3545227050781 31.14752006530762 105.2513046264648 C 31.14752006530762 103.7547988891602 31.52388763427734 102.0933837890625 32.33196640014648 100.0227203369141 C 32.93267822265625 98.48345947265625 33.53680801391602 97.13343048095703 34.13751983642578 95.96956634521484 C 34.67262268066406 94.93285369873047 35.39115142822266 93.59493255615234 36.29404449462891 91.95632934570312 C 36.45389175415039 91.66624450683594 36.59963989257812 91.40098571777344 36.73116683959961 91.16030120849609 L 21.07907676696777 18.38251113891602 L 6.191256046295166 18.38251113891602 C 2.919966459274292 18.38251113891602 -0.05242817848920822 17.13927459716797 -2.40458607673645 14.78716945648193 C -4.756770133972168 12.43493270874023 -6.000007152557373 9.46253776550293 -6.000007152557373 6.191248893737793 C -6.000007152557373 2.919906616210938 -4.756743907928467 -0.05248813331127167 -2.404612302780151 -2.404593467712402 C -0.05250712484121323 -4.756724834442139 2.91991400718689 -5.999988079071045 6.191256046295166 -5.999988079071045 L 30.95625686645508 -5.999988079071045 C 32.95654678344727 -5.999988079071045 34.8154411315918 -5.56077766418457 36.4813346862793 -4.694540977478027 C 38.05559921264648 -3.875909090042114 39.35238647460938 -2.819777488708496 40.33578109741211 -1.555435538291931 C 41.155517578125 -0.5015144348144531 41.84796524047852 0.770169734954834 42.45267868041992 2.332274913787842 C 42.99920272827148 3.744143486022949 43.34304428100586 4.934406757354736 43.52520370483398 5.890748500823975 L 43.61690139770508 6.382512092590332 L 154.7813110351562 6.382512092590332 C 158.0526580810547 6.382512092590332 161.0250701904297 7.62577486038208 163.3771820068359 9.977906227111816 C 165.7293395996094 12.33009052276611 166.9725646972656 15.30245876312256 166.9725646972656 18.57374954223633 L 166.9725646972656 68.10377502441406 C 166.9725646972656 71.11872100830078 165.894287109375 73.92137908935547 163.8542327880859 76.20877838134766 C 161.8292846679688 78.47917175292969 159.1834411621094 79.87611389160156 156.2026824951172 80.24869537353516 L 61.5926628112793 91.30485534667969 C 61.70349884033203 92.08731079101562 61.72125625610352 92.50616455078125 61.72125625610352 92.86880493164062 C 61.72125625610352 92.93220520019531 61.72052383422852 92.9959716796875 61.71904754638672 93.06003570556641 L 142.3987884521484 93.06003570556641 C 145.6700439453125 93.06003570556641 148.6424407958984 94.30327606201172 150.9945983886719 96.65532684326172 C 153.3468017578125 99.00759124755859 154.5900421142578 101.9799880981445 154.5900421142578 105.2513046264648 C 154.5900421142578 108.3546981811523 153.4713592529297 111.1888656616211 151.3483428955078 113.479866027832 C 153.4786682128906 116.5216751098633 154.5900421142578 120.0434799194336 154.5900421142578 123.825065612793 C 154.5900421142578 128.7419128417969 152.711181640625 133.2196502685547 149.1565704345703 136.774169921875 C 145.6021270751953 140.3286895751953 141.1243896484375 142.2075653076172 136.2075500488281 142.2075653076172 Z" stroke="none"/>
            <path d="M 136.2075500488281 136.2075347900391 C 139.5611419677734 136.2075347900391 142.4632873535156 134.9822082519531 144.9139556884766 132.5315093994141 C 147.3647155761719 130.0807800292969 148.5900421142578 127.1786422729492 148.5900421142578 123.8250732421875 C 148.5900421142578 120.4714736938477 147.3647155761719 117.5693054199219 144.9139556884766 115.1186065673828 C 142.4632873535156 112.6678771972656 139.5611419677734 111.4425430297852 136.2075500488281 111.4425430297852 C 132.8539428710938 111.4425430297852 129.9518127441406 112.6678771972656 127.5011138916016 115.1186065673828 C 125.0503463745117 117.5693054199219 123.8250503540039 120.4714736938477 123.8250503540039 123.8250732421875 C 123.8250503540039 127.1786422729492 125.0503463745117 130.0807800292969 127.5011138916016 132.5315093994141 C 129.9518127441406 134.9822082519531 132.8539428710938 136.2075347900391 136.2075500488281 136.2075347900391 M 49.53001403808594 136.2075347900391 C 52.88361740112305 136.2075347900391 55.78578186035156 134.9822082519531 58.23648071289062 132.5315093994141 C 60.68714904785156 130.0807800292969 61.91251754760742 127.1786422729492 61.91251754760742 123.8250732421875 C 61.91251754760742 120.4714736938477 60.68714904785156 117.5693054199219 58.23648071289062 115.1186065673828 C 55.78578186035156 112.6678771972656 52.88361740112305 111.4425430297852 49.53001403808594 111.4425430297852 C 46.17641448974609 111.4425430297852 43.2742805480957 112.6678771972656 40.82358169555664 115.1186065673828 C 38.37288284301758 117.5693054199219 37.14751434326172 120.4714736938477 37.14751434326172 123.8250732421875 C 37.14751434326172 127.1786422729492 38.37288284301758 130.0807800292969 40.82358169555664 132.5315093994141 C 43.2742805480957 134.9822082519531 46.17641448974609 136.2075347900391 49.53001403808594 136.2075347900391 M 142.3987884521484 111.4425430297852 C 144.0755767822266 111.4425430297852 145.5266418457031 110.8298721313477 146.7520141601562 109.6045379638672 C 147.9773864746094 108.3791732788086 148.5900421142578 106.928108215332 148.5900421142578 105.2513046264648 C 148.5900421142578 103.5744781494141 147.9773864746094 102.123405456543 146.7520141601562 100.8980712890625 C 145.5266418457031 99.67274475097656 144.0755767822266 99.06004333496094 142.3987884521484 99.06004333496094 L 53.3995475769043 99.06004333496094 C 54.94734954833984 95.96440887451172 55.72124862670898 93.90067291259766 55.72124862670898 92.8687744140625 C 55.72124862670898 92.223876953125 55.30208206176758 89.96664428710938 54.46368408203125 86.09710693359375 L 155.4584503173828 74.2950439453125 C 157.0062561035156 74.10157775878906 158.312255859375 73.40827178955078 159.3763885498047 72.21517181396484 C 160.4404754638672 71.02204132080078 160.9725799560547 69.651611328125 160.9725799560547 68.10377502441406 L 160.9725799560547 18.57377433776855 C 160.9725799560547 16.89697456359863 160.3598785400391 15.44587516784668 159.1345520019531 14.22054195404053 C 157.9091796875 12.9951753616333 156.4580841064453 12.38250827789307 154.7813110351562 12.38250827789307 L 38.59858322143555 12.38250827789307 C 38.53408050537109 11.93107509613037 38.38898086547852 11.09267520904541 38.16328048706055 9.867308616638184 C 37.93754959106445 8.641975402832031 37.76018142700195 7.690708160400391 37.6312141418457 7.013541698455811 C 37.50221633911133 6.33637523651123 37.24424743652344 5.497974872589111 36.85728073120117 4.49834156036377 C 36.4703483581543 3.498708248138428 36.0511474609375 2.708674907684326 35.59968185424805 2.128241777420044 C 35.14825057983398 1.547808408737183 34.51944732666016 1.048008322715759 33.71328353881836 0.6288083791732788 C 32.90715026855469 0.2096083611249924 31.98811531066895 8.357746992260218e-06 30.95624923706055 8.357746992260218e-06 L 6.191248893737793 8.357746992260218e-06 C 4.514449119567871 8.357746992260218e-06 3.063382387161255 0.6126750111579895 1.838015675544739 1.838041663169861 C 0.6126823425292969 3.063374996185303 1.568196603329852e-05 4.51444149017334 1.568196603329852e-05 6.19124174118042 C 1.568196603329852e-05 7.868041515350342 0.6126823425292969 9.319141387939453 1.838015675544739 10.54447460174561 C 3.063382387161255 11.76984214782715 4.514449119567871 12.38250827789307 6.191248893737793 12.38250827789307 L 25.92588233947754 12.38250827789307 L 43.04854965209961 91.99813842773438 C 42.91958236694336 92.32061004638672 42.41975021362305 93.27187347412109 41.5490837097168 94.85194396972656 C 40.67844772338867 96.4320068359375 39.98518371582031 97.72183990478516 39.4692497253418 98.72147369384766 C 38.95328140258789 99.72110748291016 38.43734741210938 100.8819427490234 37.92141723632812 102.2040405273438 C 37.40548324584961 103.5261383056641 37.14751434326172 104.541877746582 37.14751434326172 105.2513046264648 C 37.14751434326172 106.928108215332 37.76018142700195 108.3791732788086 38.98554992675781 109.6045379638672 C 40.21088409423828 110.8298721313477 41.66194915771484 111.4425430297852 43.33874893188477 111.4425430297852 L 142.3987884521484 111.4425430297852 M 136.2075500488281 148.2075347900391 C 129.6648559570312 148.2075347900391 123.7200469970703 145.7210083007812 119.0158462524414 141.0167694091797 C 114.3116149902344 136.3126068115234 111.8250503540039 130.3678131103516 111.8250503540039 123.8250732421875 C 111.8250503540039 123.6972885131836 111.8259963989258 123.5698699951172 111.8278884887695 123.4425430297852 L 73.90967559814453 123.4425430297852 C 73.91156768798828 123.5698699951172 73.91251373291016 123.6972885131836 73.91251373291016 123.8250732421875 C 73.91251373291016 130.3676452636719 71.42604827880859 136.3123779296875 66.72188568115234 141.0166778564453 C 62.01754760742188 145.7210083007812 56.07271575927734 148.2075347900391 49.53001403808594 148.2075347900391 C 42.9873161315918 148.2075347900391 37.04251480102539 145.7210083007812 32.33831405639648 141.0167694091797 C 27.6340160369873 136.3124389648438 25.14751625061035 130.36767578125 25.14751625061035 123.8250732421875 C 25.14751625061035 120.2745895385742 25.87964248657227 116.9004364013672 27.30117416381836 113.8047943115234 C 25.89409637451172 111.1966094970703 25.14751625061035 108.2765960693359 25.14751625061035 105.2513046264648 C 25.14751625061035 102.9844741821289 25.65431594848633 100.6300048828125 26.7424488067627 97.84157562255859 C 27.42794990539551 96.08497619628906 28.12038230895996 94.54570770263672 28.80591583251953 93.21754455566406 C 29.22623443603516 92.40317535400391 29.75567817687988 91.4090576171875 30.39510726928711 90.23554992675781 L 16.23231315612793 24.38250923156738 L 6.191248893737793 24.38250923156738 C 1.363982319831848 24.38250923156738 -3.195484399795532 22.48154258728027 -6.647251129150391 19.02974128723145 C -10.09901809692383 15.5780086517334 -11.99998474121094 11.01854133605957 -11.99998474121094 6.19124174118042 C -11.99998474121094 1.363975048065186 -10.09901809692383 -3.195491552352905 -6.647251129150391 -6.647224903106689 C -3.195484399795532 -10.09902477264404 1.363982319831848 -11.99999141693115 6.191248893737793 -11.99999141693115 L 30.95624923706055 -11.99999141693115 C 33.92991638183594 -11.99999141693115 36.72021484375 -11.33305835723877 39.24961471557617 -10.01772499084473 C 41.59555053710938 -8.797891616821289 43.55455017089844 -7.190024852752686 45.07201385498047 -5.2388916015625 C 46.25581741333008 -3.716958284378052 47.2293815612793 -1.948691606521606 48.04818344116211 0.1666083633899689 C 48.07623291015625 0.239068403840065 48.10379028320312 0.3109387457370758 48.1309700012207 0.3825083673000336 L 154.7813110351562 0.3825083673000336 C 159.6085815429688 0.3825083673000336 164.1680450439453 2.283474922180176 167.6198120117188 5.735274791717529 C 171.0716094970703 9.187041282653809 172.9725799560547 13.74650859832764 172.9725799560547 18.57377433776855 L 172.9725799560547 68.10377502441406 C 172.9725799560547 72.61477661132812 171.367919921875 76.79840850830078 168.3320770263672 80.20237731933594 C 165.3263549804688 83.57241058349609 161.3894500732422 85.64707183837891 156.9468231201172 86.20237731933594 L 146.1898956298828 87.45944976806641 C 149.5803527832031 88.18496704101562 152.7064819335938 89.88204956054688 155.2371826171875 92.41267395019531 C 158.6890106201172 95.86444091796875 160.5900421142578 100.423942565918 160.5900421142578 105.2513046264648 C 160.5900421142578 108.2765960693359 159.8434753417969 111.1965866088867 158.4364013671875 113.8047714233398 C 159.8579254150391 116.9003982543945 160.5900421142578 120.2745361328125 160.5900421142578 123.8250732421875 C 160.5900421142578 130.3677825927734 158.1034851074219 136.3126068115234 153.3991851806641 141.016845703125 C 148.6950836181641 145.7210083007812 142.7502899169922 148.2075347900391 136.2075500488281 148.2075347900391 Z" stroke="none" fill="#fff"/>
          </g>
        </g>
        <g id="shopping-cart-2" data-name="shopping-cart">
          <path id="路径_8-2" data-name="路径 8" d="M61.913,123.825A12.555,12.555,0,0,1,49.53,136.208a12.383,12.383,0,1,1,8.706-21.089A11.9,11.9,0,0,1,61.913,123.825Zm86.678,0a12.555,12.555,0,1,1-3.676-8.706A11.9,11.9,0,0,1,148.59,123.825ZM160.973,18.574V68.1a6,6,0,0,1-1.6,4.111,6.118,6.118,0,0,1-3.918,2.08L54.464,86.1a58.4,58.4,0,0,1,1.258,6.772q0,1.548-2.322,6.191h89a6.191,6.191,0,0,1,0,12.382H43.339a6.277,6.277,0,0,1-6.191-6.191,9.225,9.225,0,0,1,.774-3.047,36.867,36.867,0,0,1,1.548-3.483q.774-1.5,2.08-3.87T43.049,92L25.926,12.383H6.191a5.95,5.95,0,0,1-4.353-1.838A5.95,5.95,0,0,1,0,6.191,5.95,5.95,0,0,1,1.838,1.838,5.95,5.95,0,0,1,6.191,0H30.956a5.888,5.888,0,0,1,2.757.629,5.628,5.628,0,0,1,1.886,1.5A9.43,9.43,0,0,1,36.857,4.5a15.061,15.061,0,0,1,.774,2.515q.193,1.016.532,2.854t.435,2.515H154.781a5.95,5.95,0,0,1,4.353,1.838A5.95,5.95,0,0,1,160.973,18.574Z" transform="translate(0)" fill="#608"/>
        </g>
      </g>
    </g>
    <g id="组_7" data-name="组 7" transform="translate(2569.803 4996)">
      <ellipse id="椭圆_1" data-name="椭圆 1" cx="55.982" cy="55.982" rx="55.982" ry="55.982" transform="translate(30.127 30.127)" fill="#fff"/>
      <g id="patch-check-fill" transform="translate(0 0)">
        <g id="组_6" data-name="组 6" transform="translate(0 0)">
          <path id="路径_9" data-name="路径 9" d="M108.367,9.361a31.106,31.106,0,0,0-44.5,0l-6.695,6.867L47.6,16.11A31.106,31.106,0,0,0,16.124,47.582l.108,9.579L9.386,63.857a31.106,31.106,0,0,0,0,44.5l6.856,6.695-.118,9.579A31.106,31.106,0,0,0,47.6,156.1l9.579-.108,6.695,6.846a31.106,31.106,0,0,0,44.5,0l6.695-6.856,9.579.118a31.106,31.106,0,0,0,31.472-31.472l-.108-9.579,6.846-6.695a31.106,31.106,0,0,0,0-44.5l-6.856-6.695.118-9.579A31.106,31.106,0,0,0,124.641,16.11l-9.579.108-6.695-6.846Zm3.089,64.408-32.29,32.29a5.382,5.382,0,0,1-7.62,0L55.4,89.915a5.389,5.389,0,1,1,7.621-7.62L75.355,94.64l28.48-28.491a5.389,5.389,0,0,1,7.621,7.62Z" transform="translate(-0.02 0.005)" fill="#608"/>
        </g>
      </g>
    </g>
  </g>
</svg>
