<svg xmlns="http://www.w3.org/2000/svg" width="136.352" height="52.755" viewBox="0 0 136.352 52.755">
  <g id="组_5853" data-name="组 5853" transform="translate(-7.68 -45)">
    <path id="路径_304" data-name="路径 304" d="M141.1,84.683l-.876,1.862a.511.511,0,0,1-.928,0l-.985-2.151h-7.484a.511.511,0,0,0-.511.511v1.977a.511.511,0,0,0,.511.511h.73a.512.512,0,0,1,.512.512v4.293a.511.511,0,0,0,.511.511h2.053a.511.511,0,0,0,.512-.511V87.388h.319v4.805a.511.511,0,0,0,.511.511h2.546v-.669l.312.669h1.832l.29-.625V92.7h2.562a.511.511,0,0,0,.512-.511V84.9a.511.511,0,0,0-.512-.511h-1.954A.509.509,0,0,0,141.1,84.683Z" fill="#fff"/>
    <path id="路径_305" data-name="路径 305" d="M105.806,64.431A3.609,3.609,0,0,1,104.8,64.3v.064h-4.006a.567.567,0,0,1-.568-.567V60.356a.568.568,0,0,1,.568-.568h.841a.568.568,0,0,0,.568-.568V55.733h.622v-.457l3.589-2.174a.568.568,0,0,1,.862.486v1.577a.568.568,0,0,0,.568.568H115.1a.568.568,0,0,1,.543.737l-2.337,7.5a.568.568,0,0,1-.542.4h-6.019l-.009-.031A4.755,4.755,0,0,1,105.806,64.431Z" fill="#fff"/>
    <path id="路径_306" data-name="路径 306" d="M40.649,87.766H36.7a1.321,1.321,0,0,0-.439.08,8.832,8.832,0,0,1-1.694.436,8.629,8.629,0,0,1-1.226.087,7.755,7.755,0,0,1-7.1-4.134,8.328,8.328,0,0,1-.993-4.828,1.307,1.307,0,0,0-1.709-1.383,18.024,18.024,0,0,1-4.054.842A1.334,1.334,0,0,0,18.3,80.2v6.348a1.33,1.33,0,0,1-1.33,1.331H9.01a1.33,1.33,0,0,1-1.33-1.331V60.382a1.33,1.33,0,0,1,.966-1.28l.78-.221a25.176,25.176,0,0,1,6.841-.838c7.276,0,11.727,2.219,13.275,6.608a1.318,1.318,0,0,0,1.6.848,17.35,17.35,0,0,1,4.77-.735,11.722,11.722,0,0,1,2.865.339,10.045,10.045,0,0,1,1.056.328,1.28,1.28,0,0,0,.449.083h9.341a1.33,1.33,0,0,1,1.262.91l.065.2a1.331,1.331,0,0,0,2.553-.1h0a1.33,1.33,0,0,1,1.29-1.008h8.162A1.331,1.331,0,0,1,64.21,67.28L59.355,81.3c-.245.72-2.481,7.161-4.776,9.948-3.979,4.835-8.5,5.207-9,5.234l-.93.046a1.329,1.329,0,0,1-1.37-1.068l-1.325-6.627A1.332,1.332,0,0,0,40.649,87.766Zm6.315-2.458a3.517,3.517,0,0,0,.263-.367L45.435,80.76c0,1.057,0,1.968,0,2.548a1.311,1.311,0,0,0,.42.96ZM34.756,80l.006-.007ZM18.3,69.939c1.975-.183,1.975-.81,1.975-1.419a1.332,1.332,0,0,0-.063-.584c-.026-.033-.272-.283-1.912-.372Z" fill="#fff" fill-rule="evenodd"/>
    <path id="路径_307" data-name="路径 307" d="M102.027,62.561v-.97h.967v.97Z" fill="#ff8431"/>
    <path id="路径_308" data-name="路径 308" d="M106.325,61.8l.122.753a3.169,3.169,0,0,1-.641.075,1.459,1.459,0,0,1-.717-.146.823.823,0,0,1-.359-.386,3.089,3.089,0,0,1-.1-1.006V58.2H104v-.662h.622V56.292l.845-.512v1.756h.854V58.2h-.854v2.939a1.52,1.52,0,0,0,.044.468.358.358,0,0,0,.147.166.563.563,0,0,0,.29.062A2.8,2.8,0,0,0,106.325,61.8Z" fill="#ff8431"/>
    <path id="路径_309" data-name="路径 309" d="M108.079,62.561l-1.533-5.025h.877l.8,2.9.3,1.079q.018-.081.26-1.037l.8-2.943h.872l.75,2.915.251.96.287-.97.858-2.905h.827l-1.566,5.025h-.883l-.8-3.01-.194-.856-1.014,3.866Z" fill="#ff8431"/>
    <path id="路径_310" data-name="路径 310" d="M99.479,90.915c-9.073,0-16.455-6.078-16.455-13.548s7.382-13.549,16.455-13.549c2.1,0,4.686-.733,6.606-.108l-.887-.134h9.3a.493.493,0,0,1,.478.373l.932,3.741a.493.493,0,0,0,.956,0l.932-3.741a.493.493,0,0,1,.478-.373h6.5a.493.493,0,0,1,.478.373l.933,3.742a.492.492,0,0,0,.955,0l.933-3.742a.493.493,0,0,1,.478-.373h8.65a.492.492,0,0,1,.47.639l-6.766,21.752a.492.492,0,0,1-.47.346h-7.51a.493.493,0,0,1-.478-.373l-.926-3.716L120.6,85.94a.491.491,0,0,1-.477.373h-8l-.055-.181A17.927,17.927,0,0,1,99.479,90.915Zm0-20.834c-5.62,0-10.192,3.268-10.192,7.286s4.572,7.286,10.192,7.286c5.184,0,9.536-2.814,10.113-6.468a.523.523,0,0,0-.018-.239l-1.245-4.087a.537.537,0,0,0-.1-.187A11.476,11.476,0,0,0,99.479,70.081Z" fill="#fff" fill-rule="evenodd"/>
    <path id="路径_311" data-name="路径 311" d="M99.479,89.713c-8.41,0-15.253-5.538-15.253-12.346s6.843-12.346,15.253-12.346a17.915,17.915,0,0,1,7.967,1.811l-.625-2.054h7.121l2.444,9.8,2.442-9.8h5.395l2.444,9.8,2.443-9.8h7.131l-6.325,20.333h-6.432l-1.959-7.859-1.958,7.859h-6.554l-.428-1.4C109.886,87.386,104.969,89.713,99.479,89.713Zm0-20.835c-6.283,0-11.395,3.808-11.395,8.489s5.112,8.488,11.395,8.488c6.011,0,10.946-3.455,11.353-7.905l-1.45-4.76C107.344,70.526,103.572,68.878,99.479,68.878Z" fill="#fff" fill-rule="evenodd"/>
    <path id="路径_312" data-name="路径 312" d="M15.9,76.592l.368,0c6.9,0,11.512-1.9,11.512-8.077s-4.617-8.073-11.512-8.073a22.892,22.892,0,0,0-6.183.747V85.478H15.9Zm0-4.23V65.167c.353-.025.722-.039,1.095-.039,3.547,0,5.688.426,5.688,3.392S20.541,72.4,16.994,72.4C16.621,72.4,16.252,72.386,15.9,72.362Z" fill="#040000" fill-rule="evenodd"/>
    <path id="路径_313" data-name="路径 313" d="M28.981,68.888l.969,3.391a9.509,9.509,0,0,1,4.845-1.453c3.818.145,2.907,2.423,2.907,2.423s-6.381.257-8.721,3.391A5.664,5.664,0,0,0,34.2,85.9a8.074,8.074,0,0,0,3.983-2v1.454h5.33a2.05,2.05,0,0,1-.485-1.454c0-1,0-11.629,0-11.629a6.329,6.329,0,0,0-4.845-4.845C33.918,66.359,28.981,68.888,28.981,68.888Zm9.206,7.752v2.423s-1.177,2.631-2.423,2.907c-.969.213-3.29.475-3.391-1.938C32.232,76.815,38.187,76.64,38.187,76.64Z" fill="#040000" fill-rule="evenodd"/>
    <path id="路径_314" data-name="路径 314" d="M17.1,71.193V66.33c3.962.012,4.379.681,4.379,2.19C21.48,69.861,21.14,71.171,17.1,71.193Zm19.884,7.6a5.124,5.124,0,0,1-1.479,2,4.214,4.214,0,0,1-.874.1c-.867,0-1.032-.3-1.058-.92a1.027,1.027,0,0,1,.3-.795,5.885,5.885,0,0,1,3.111-1.22Z" fill="#fff" fill-rule="evenodd"/>
    <path id="路径_315" data-name="路径 315" d="M70.147,82.832v2.773a1.676,1.676,0,0,1-1.676,1.676h-6.3a1.676,1.676,0,0,1-1.676-1.676V54.723A1.677,1.677,0,0,1,61.766,53.1s2.156-.995,2.818-.7c.215.1.44.832.44.832,1.516,2.87,6.667,12.618,10.631,20.166a15.9,15.9,0,0,1,.431-2.238,16.81,16.81,0,0,1,.884-2.471,1.68,1.68,0,0,0-.757-2.178c-3.217-1.738-5.06-4.257-5.06-7.069,0-4,3.859-7.373,9.6-8.757A1.685,1.685,0,0,0,81.893,48.3l-.435-.869a1.676,1.676,0,0,1,1.707-2.413l6.108.763a1.676,1.676,0,0,1,1.382,2.193l-.126.378A1.677,1.677,0,0,0,91.8,50.516c6.15,1.261,10.329,4.737,10.329,8.923,0,4.881-5.674,8.761-13.419,9.353a1.7,1.7,0,0,0-1.3.764,15.74,15.74,0,0,0-2.73,6.8c-.5,6.118,2.715,14.336,2.747,14.418l.223.563a1.677,1.677,0,0,1-.659,2.031L80.5,97.492a1.676,1.676,0,0,1-2.358-.586Z" fill="#fff" fill-rule="evenodd"/>
    <path id="路径_316" data-name="路径 316" d="M68.945,78.283v7.8h-7.25V54.352l2.266-.562c1.8,3.41,8.736,16.534,12.712,24.134a23.507,23.507,0,0,1,.571-6.448,14.3,14.3,0,0,1,2.329-4.854c-4.441-1.427-7.218-4.137-7.218-7.183,0-4.239,5.3-7.635,12.375-8.157L82.137,46.1l7.56.945-1.406,4.221c7.205.458,12.634,3.885,12.634,8.176,0,4.5-5.958,8.043-13.674,8.221-1.651,2.275-3.514,5.473-3.775,8.6C82.95,82.649,86.27,91.133,86.3,91.218l.366.924-7.234,4.6Z" fill="#fff" fill-rule="evenodd"/>
    <path id="路径_317" data-name="路径 317" d="M84.217,47.569l2.423,4.845,1.453-4.361ZM62.9,84.877h4.845V73.733L79.856,95.052l5.33-3.391s-3.464-8.746-2.907-15.505c.295-3.547,2.413-7.108,4.361-9.691,7.224,0,13.082-3.145,13.082-7.025s-5.858-7.026-13.082-7.026S73.557,55.559,73.557,59.44c0,2.926,3.334,5.436,8.068,6.492A14.945,14.945,0,0,0,78.4,71.795c-1.153,4.2-.121,11.541,0,12.089-.378-.921-15.5-29.532-15.5-29.532Z" fill="#ee7d1c" fill-rule="evenodd"/>
    <g id="组_911" data-name="组 911">
      <ellipse id="椭圆_82" data-name="椭圆 82" cx="13.809" cy="10.902" rx="13.809" ry="10.902" transform="translate(85.671 66.465)" fill="#fae0b1"/>
    </g>
    <path id="路径_318" data-name="路径 318" d="M130.049,65.981l-3.383,13.566-3.381-13.566h-3.518l-3.382,13.566L113,65.981h-4.559l1.1,3.62A15.964,15.964,0,0,0,99.48,66.223c-7.762,0-14.052,4.99-14.052,11.144s6.29,11.144,14.052,11.144c6.322,0,11.665-3.311,13.431-7.864l.993,3.261h4.724l2.9-11.629,2.9,11.629h4.608l5.577-17.927ZM99.48,87.058c-6.958,0-12.6-4.337-12.6-9.691s5.64-9.691,12.6-9.691c4.724,0,8.835,2,10.991,4.963l1.577,5.176C111.742,82.959,106.241,87.058,99.48,87.058Z" fill="#ee7d1c" fill-rule="evenodd"/>
    <g id="组_912" data-name="组 912">
      <path id="路径_319" data-name="路径 319" d="M99.722,70.341a1.453,1.453,0,1,1,1.454,1.454A1.451,1.451,0,0,1,99.722,70.341Z" fill="#ee7d1c" fill-rule="evenodd"/>
    </g>
    <g id="组_913" data-name="组 913">
      <circle id="椭圆_83" data-name="椭圆 83" cx="1.454" cy="1.454" r="1.454" transform="translate(104.567 70.341)" fill="#ee7d1c"/>
    </g>
    <g id="组_914" data-name="组 914">
      <path id="路径_320" data-name="路径 320" d="M101.541,78.635a7,7,0,0,1-.912-.061,3.5,3.5,0,0,1-2.686-1.592c-1.261-2.042-.179-5.212-.132-5.346a.484.484,0,1,1,.915.318c-.01.029-.977,2.872.043,4.521a2.544,2.544,0,0,0,1.984,1.138,4.082,4.082,0,0,0,4.8-3.019.484.484,0,1,1,.944.216A5.105,5.105,0,0,1,101.541,78.635Z" fill="#ee7d1c"/>
    </g>
    <g id="组_915" data-name="组 915">
      <path id="路径_321" data-name="路径 321" d="M107.716,75.913a.479.479,0,0,1-.216-.051l-2.907-1.453a.485.485,0,1,1,.433-.867L107.933,75a.485.485,0,0,1-.217.918Z" fill="#ee7d1c"/>
    </g>
    <g id="组_916" data-name="组 916">
      <path id="路径_322" data-name="路径 322" d="M99.48,72.522H96.573a.485.485,0,1,1,0-.969H99.48a.485.485,0,0,1,0,.969Z" fill="#ee7d1c"/>
    </g>
    <g id="组_917" data-name="组 917">
      <path id="路径_323" data-name="路径 323" d="M79.432,60.72l.836.109a2.187,2.187,0,0,1-.7,1.356,2.038,2.038,0,0,1-1.384.489A2.147,2.147,0,0,1,76.529,62a2.737,2.737,0,0,1-.626-1.933,3.509,3.509,0,0,1,.269-1.424,1.891,1.891,0,0,1,.818-.916,2.423,2.423,0,0,1,1.2-.305,2.076,2.076,0,0,1,1.334.414,1.908,1.908,0,0,1,.666,1.176l-.827.128a1.369,1.369,0,0,0-.418-.762,1.079,1.079,0,0,0-.724-.256,1.311,1.311,0,0,0-1.041.461,2.193,2.193,0,0,0-.4,1.46,2.27,2.27,0,0,0,.387,1.472,1.26,1.26,0,0,0,1.01.459,1.188,1.188,0,0,0,.836-.308A1.529,1.529,0,0,0,79.432,60.72Z" fill="#fff"/>
      <path id="路径_324" data-name="路径 324" d="M80.677,60.048a2.6,2.6,0,0,1,.774-2.068,2.327,2.327,0,0,1,1.575-.558,2.247,2.247,0,0,1,1.69.679,2.593,2.593,0,0,1,.655,1.876,3.342,3.342,0,0,1-.29,1.526,2.058,2.058,0,0,1-.845.864,2.449,2.449,0,0,1-1.21.307,2.247,2.247,0,0,1-1.7-.676A2.714,2.714,0,0,1,80.677,60.048Zm.873,0a2.148,2.148,0,0,0,.42,1.446,1.394,1.394,0,0,0,2.108,0,2.194,2.194,0,0,0,.42-1.471,2.083,2.083,0,0,0-.422-1.413,1.4,1.4,0,0,0-2.106,0A2.132,2.132,0,0,0,81.55,60.048Z" fill="#fff"/>
      <path id="路径_325" data-name="路径 325" d="M86.366,62.56V57.536h.76v.705a1.79,1.79,0,0,1,.627-.6,1.769,1.769,0,0,1,.892-.224,1.643,1.643,0,0,1,.913.232,1.235,1.235,0,0,1,.5.648,1.8,1.8,0,0,1,1.547-.88,1.525,1.525,0,0,1,1.147.414,1.769,1.769,0,0,1,.4,1.275V62.56H92.31V59.4a2.343,2.343,0,0,0-.082-.736.716.716,0,0,0-.3-.362.942.942,0,0,0-.51-.137,1.185,1.185,0,0,0-.878.353,1.556,1.556,0,0,0-.349,1.128V62.56h-.849V59.3a1.45,1.45,0,0,0-.207-.852.787.787,0,0,0-.68-.284,1.234,1.234,0,0,0-.663.189,1.073,1.073,0,0,0-.44.554,3.1,3.1,0,0,0-.137,1.05V62.56Z" fill="#fff"/>
    </g>
    <path id="路径_326" data-name="路径 326" d="M135.7,86.186h-1.758V91.5h-.671V86.186H131.52v-.595H135.7Z"/>
    <path id="路径_327" data-name="路径 327" d="M142.159,91.5V87.511q0-.455.064-1.142h-.02a3.226,3.226,0,0,1-.181.558L139.9,91.5h-.3l-2.119-4.544a3.292,3.292,0,0,1-.176-.589h-.02q.035.313.035,1.13v4h-.653V85.591h.874l1.9,4.163a5.794,5.794,0,0,1,.283.7h.028c.079-.206.176-.445.295-.718L142,85.591h.825V91.5Z"/>
    <path id="路径_328" data-name="路径 328" d="M42.548,67.919h6.3l3.876,11.628L55.63,67.919h5.814l-4.36,12.6S54.8,87.2,52.723,89.722c-3.431,4.168-7.268,4.361-7.268,4.361l-.969-4.845a6.807,6.807,0,0,0,3.391-1.454,5.1,5.1,0,0,0,1.939-2.907Z" fill="#040000" fill-rule="evenodd"/>
  </g>
</svg>
