<?xml version="1.0" encoding="UTF-8"?>
<svg id="b" data-name="圖層 2" xmlns="http://www.w3.org/2000/svg" width="924" height="262" xmlns:xlink="http://www.w3.org/1999/xlink" viewBox="0 0 924 262">
  <defs>
    <filter id="d" data-name="drop-shadow-1" filterUnits="userSpaceOnUse">
      <feOffset dx="0" dy="0"/>
      <feGaussianBlur result="e" stdDeviation="10"/>
      <feFlood flood-color="#a00" flood-opacity=".4"/>
      <feComposite in2="e" operator="in"/>
      <feComposite in="SourceGraphic"/>
    </filter>
    <radialGradient id="f" data-name="未命名漸層 8382" cx="37.3" cy="11772.9" fx="37.3" fy="11772.9" r="38.6" gradientTransform="translate(1.4 11987) scale(1 -1)" gradientUnits="userSpaceOnUse">
      <stop offset="0" stop-color="#fff"/>
      <stop offset="0" stop-color="#fff7e0"/>
      <stop offset=".2" stop-color="#ffeaa5"/>
      <stop offset=".4" stop-color="#ffde73"/>
      <stop offset=".5" stop-color="#ffd549"/>
      <stop offset=".6" stop-color="#ffcd29"/>
      <stop offset=".8" stop-color="#ffc812"/>
      <stop offset=".9" stop-color="#ffc504"/>
      <stop offset="1" stop-color="#ffc400"/>
    </radialGradient>
    <radialGradient id="g" data-name="未命名漸層 8382" cx="884.7" cy="11958" fx="884.7" fy="11958" xlink:href="#f"/>
    <filter id="h" data-name="outer-glow-2" filterUnits="userSpaceOnUse">
      <feOffset dx="0" dy="0"/>
      <feGaussianBlur result="i" stdDeviation="10"/>
      <feFlood flood-color="#fff" flood-opacity="1"/>
      <feComposite in2="i" operator="in"/>
      <feComposite in="SourceGraphic"/>
    </filter>
    <filter id="j" data-name="outer-glow-3" filterUnits="userSpaceOnUse">
      <feOffset dx="0" dy="0"/>
      <feGaussianBlur result="k" stdDeviation="5"/>
      <feFlood flood-color="#000" flood-opacity=".8"/>
      <feComposite in2="k" operator="in"/>
      <feComposite in="SourceGraphic"/>
    </filter>
    <radialGradient id="l" data-name="未命名漸層 186" cx="558.8" cy="184.9" fx="558.8" fy="184.9" r="32.9" gradientUnits="userSpaceOnUse">
      <stop offset="0" stop-color="#f99"/>
      <stop offset=".6" stop-color="#ff3939"/>
      <stop offset="1" stop-color="red"/>
    </radialGradient>
    <filter id="m" data-name="outer-glow-4" filterUnits="userSpaceOnUse">
      <feOffset dx="0" dy="0"/>
      <feGaussianBlur result="n" stdDeviation="5"/>
      <feFlood flood-color="#000" flood-opacity=".8"/>
      <feComposite in2="n" operator="in"/>
      <feComposite in="SourceGraphic"/>
    </filter>
    <radialGradient id="o" data-name="未命名漸層 186" cx="629.2" cy="184" fx="629.2" fy="184" r="32.2" xlink:href="#l"/>
    <filter id="p" data-name="outer-glow-5" filterUnits="userSpaceOnUse">
      <feOffset dx="0" dy="0"/>
      <feGaussianBlur result="q" stdDeviation="5"/>
      <feFlood flood-color="#000" flood-opacity=".8"/>
      <feComposite in2="q" operator="in"/>
      <feComposite in="SourceGraphic"/>
    </filter>
    <radialGradient id="r" data-name="未命名漸層 186" cx="699.8" cy="184.8" fx="699.8" fy="184.8" r="32.5" xlink:href="#l"/>
    <filter id="s" data-name="outer-glow-6" filterUnits="userSpaceOnUse">
      <feOffset dx="0" dy="0"/>
      <feGaussianBlur result="t" stdDeviation="5"/>
      <feFlood flood-color="#000" flood-opacity=".8"/>
      <feComposite in2="t" operator="in"/>
      <feComposite in="SourceGraphic"/>
    </filter>
    <radialGradient id="u" data-name="未命名漸層 186" cx="769.6" cy="184.9" fx="769.6" fy="184.9" r="32.4" xlink:href="#l"/>
  </defs>
  <g id="c" data-name="圖層 1">
    <g style="filter: url(#d);">
      <g>
        <path d="M862.7,247.2H42.9l-20-20V66.7c15.6-15.6,24.4-24.4,40-40h819.9c7.8,7.8,12.2,12.2,20,20v160.6c-15.6,15.6-24.4,24.4-40,40Z" style="fill: #ffc400; stroke-width: 0px;"/>
        <g>
          <polyline points="68.3 32.7 65.3 32.7 63.2 34.8" style="fill: none; stroke: #fff; stroke-miterlimit: 10; stroke-width: 2px;"/>
          <polyline points="58.9 39.1 28.9 69.1 28.9 218.7" style="fill: none; stroke: #fff; stroke-dasharray: 0 0 6.1 6.1; stroke-miterlimit: 10; stroke-width: 2px;"/>
          <polyline points="28.9 221.7 28.9 224.7 31 226.9" style="fill: none; stroke: #fff; stroke-miterlimit: 10; stroke-width: 2px;"/>
          <polyline points="35.2 231.1 45.3 241.2 860.2 241.2 896.7 204.7 896.7 49.1 884.5 36.9" style="fill: none; stroke: #fff; stroke-dasharray: 0 0 6 6; stroke-miterlimit: 10; stroke-width: 2px;"/>
          <polyline points="882.3 34.8 880.2 32.7 877.2 32.7" style="fill: none; stroke: #fff; stroke-miterlimit: 10; stroke-width: 2px;"/>
          <line x1="871.2" y1="32.7" x2="71.3" y2="32.7" style="fill: none; stroke: #fff; stroke-dasharray: 0 0 6 6; stroke-miterlimit: 10; stroke-width: 2px;"/>
        </g>
        <g>
          <polygon points="47.8 235.2 34.9 222.3 34.9 71.6 67.8 38.7 739.1 38.7 168.4 235.2 47.8 235.2" style="fill: #ffebeb; stroke-width: 0px;"/>
          <polygon points="857.7 235.2 168.4 235.2 739.1 38.7 877.7 38.7 890.7 51.6 890.7 202.3 857.7 235.2" style="fill: #fff; stroke-width: 0px;"/>
        </g>
        <polygon points="38.7 262 44.5 250.4 54.5 258.6 55.1 245.7 67.6 249.1 62.9 237 75.7 235.1 66.5 226 77.4 219 65.3 214.4 72.4 203.6 59.5 204.4 61.6 191.6 50.1 197.5 46.8 185 38.7 195.1 30.6 185 27.3 197.5 15.8 191.6 17.9 204.4 5 203.6 12.1 214.4 0 219 10.9 226 1.7 235.1 14.5 237 9.8 249.1 22.3 245.7 22.9 258.6 32.9 250.4 38.7 262" style="fill: url(#f); stroke-width: 0px;"/>
        <polygon points="885.3 77 891.1 65.4 901.1 73.6 901.7 60.7 914.2 64.1 909.5 52 922.3 50.1 913.1 41 924 34 911.9 29.4 919 18.6 906.1 19.4 908.2 6.6 896.7 12.5 893.4 0 885.3 10.1 877.2 0 873.9 12.5 862.4 6.6 864.5 19.4 851.6 18.6 858.7 29.4 846.6 34 857.5 41 848.3 50.1 861.1 52 856.4 64.1 868.9 60.7 869.5 73.6 879.5 65.4 885.3 77" style="fill: url(#g); stroke-width: 0px;"/>
      </g>
      <g>
        <g style="filter: url(#h);">
          <path d="M247.2,116.4c-3.3-3-9.1-6.9-14.9-10.2-.2,2.1,0,4.9.2,6.4-13.7,3.9-17.2,5.1-18.8,6.1,3.4.3,7,.5,11.2.5,8.7,0,22.2-.5,31.6-1.4-1.4,2-2.7,6.3-3.2,9.1-8.6.5-19,.7-28.6.7-15.2,0-24.8-1.6-31.1-10.3-2.6,5-5.7,9-9.2,11.9-1.3-1.9-4.5-5.2-6.3-6.4,6.3-4.9,10.7-13.1,12.8-24h-4.9c-1.7,0-4.1.6-4.9,1.2-.5-2-2.2-6.1-3-7.8,1.2-.3,2.5-1,3.9-2.6,1.3-1.4,4.2-6,6.7-10.5h-9.1v-7.8h14.6l.8-.3,6,2.3c-2.6,4.6-7.2,12.3-10.9,17.9h4.7l1.6-.2,4.1,1.7c-.8,6.1-2,11.5-3.5,16.4,3.3,6.3,8.7,8.6,16.4,9.6-.4-1.9-1.6-4.7-2.5-6.1,1.3-.5,2.8-1.4,2.8-4.4v-1.4c-3.2,1.6-6.5,2.8-9.8,4-1-1.8-3.5-5.4-5.2-7.1,6.9-1.7,14-4.4,19.1-7.9h-10.9v-18.2h40.5v16.8l5.9,3.8c-3,2.1-6.3,4.1-9.3,5.8,3.8,2.2,7.2,4.5,9.5,6.6l-6.1,6ZM191.4,69.9c-2.1-3.5-6.4-9.3-9.9-13.3l7.3-4.3c3.7,3.9,8,9,10.2,12.3l-7.7,5.3ZM200.9,74.3v-6.9h21v-3.6h-16.7v-6.9h16.7v-4.6h9.5v4.6h17.4v6.9h-17.4v3.6h22.1v6.9h-52.6ZM215.7,89.1h22v-5.1h-22v5.1ZM229.2,95.7c-2.2,2.4-4.9,4.5-7.9,6.6v6.4l10.8-2.6c-2.2-1.3-4.4-2.5-6.4-3.5l5.7-5.4c2,.9,3.9,1.9,6.1,3,2-1.3,4.2-3,5.9-4.5h-14.2Z" style="fill: #ff7f00; stroke-width: 0px;"/>
          <path d="M289.3,113.1h-16.7v7.2h-9.1v-63.2h25.8v56ZM272.6,65.9v14.5h7.6v-14.5h-7.6ZM280.1,104.4v-15.5h-7.6v15.5h7.6ZM329.2,85.2v7.1h7.9v8.5h-7.9v17.9c0,4.7-.9,7.2-4.1,8.6-3.2,1.4-7.7,1.6-13.7,1.6-.3-2.7-1.8-6.6-3.1-9.2,3.9.2,8.6.2,9.8.2s1.7-.3,1.7-1.5v-17.7h-28.9v-8.5h28.9v-7.1h-29v-8.6h18.6v-7.2h-15.8v-8.6h15.8v-8.6h9.6v8.6h16.5v8.6h-16.5v7.2h18.8v8.6h-8.5ZM301.9,101.7c3.8,4,8.2,9.5,10,13.5l-8.4,4.9c-1.5-3.8-5.7-9.6-9.4-13.8l7.8-4.5Z" style="fill: #ff7f00; stroke-width: 0px;"/>
          <path d="M359.6,60.9h14.3l19.6,61h-12.8l-4.3-15.6h-19.7l-4.3,15.6h-12.3l19.5-61ZM359.4,96.8h14.5l-1.8-6.7c-1.9-6.3-3.5-13.3-5.3-19.9h-.4c-1.6,6.7-3.4,13.6-5.2,19.9l-1.8,6.7Z" style="fill: #ff7f00; stroke-width: 0px;"/>
          <path d="M400.7,60.9h12.2v61h-12.2v-61Z" style="fill: #ff7f00; stroke-width: 0px;"/>
          <path d="M491.8,62.8v66.1h-10.4v-4h-39.1v4.1h-10V62.8h21.1c.9-3.5,1.8-7.5,2.2-10.8l11.8,1.3c-1.2,3.3-2.6,6.5-3.9,9.5h28.2ZM442.2,72.2v8.5h39.1v-8.5h-39.1ZM442.2,89.7v8.5h39.1v-8.5h-39.1ZM481.3,115.8v-8.6h-39.1v8.6h39.1Z" style="fill: #ff7f00; stroke-width: 0px;"/>
          <path d="M580.4,70.7s0,3.2,0,4.4c-.7,33.7-1.4,45.6-4,49.4-1.9,2.7-3.8,3.5-6.5,4.1-2.5.5-6.3.4-10.2.3-.2-2.7-1.2-6.7-2.9-9.4,3.6.3,6.7.4,8.3.4s2.1-.3,2.8-1.4c1.7-2.2,2.6-12.3,3-38.8h-7.4c-1.1,22.1-4.9,39-18.7,50-1.2-2-3.6-4.7-5.8-6.5-11.8,1.2-23.7,2.5-32.6,3.2l-1.2-8.2c4.6-.3,10.4-.7,16.7-1.2v-4.9h-14.5v-6.9h14.5v-3.2h-14.2v-25.4h14.2v-3.2h-16.2v-7.1h16.2v-3.3c-4.8.3-9.5.6-13.9.7-.3-2-1.2-5-2.1-6.9,12.2-.7,26.4-2.1,35.5-4l4.3,7.3c-4.4.9-9.5,1.6-14.8,2.2v4h15.8v4.5h7.7c0-5.4,0-11.1,0-17.2h9.4c0,6,0,11.8-.2,17.2h16.7ZM515.6,86.2h6.4v-3.6h-6.4v3.6ZM522,95.8v-3.7h-6.4v3.7h6.4ZM530.9,116.2c4.7-.3,9.5-.7,14.3-1.2,6.4-8.9,8.4-20.7,9-35.4h-7.5v-6.4h-15.8v3.2h14.6v25.4h-14.6v3.2h14.9v6.9h-14.9v4.2ZM537.3,86.2v-3.6h-6.4v3.6h6.4ZM530.9,92.1v3.7h6.4v-3.7h-6.4Z" style="fill: #ff7f00; stroke-width: 0px;"/>
          <path d="M601.1,84.4v44.6h-9.5V55.3h31.7v29.1h-22.1ZM601.1,62.3v4.2h12.9v-4.2h-12.9ZM614,77.4v-4.4h-12.9v4.4h12.9ZM638.1,110.5v17h-8.6v-17h-7.9c-.8,5.7-3.5,13.7-10.5,18.4-1.4-1.7-4.4-4.3-6.3-5.6,5.3-3.3,7.6-8.6,8.4-12.8h-8.3v-8h8.6v-6.2h-7.5v-7.7h39.7v7.7h-7.7v6.2h9v8h-9ZM629.6,102.5v-6.2h-7.7v6.2h7.7ZM660.9,117.6c0,5-.9,7.7-3.9,9.3-3,1.6-7.2,1.9-13.5,1.9-.3-2.7-1.6-7.2-3-9.7,3.7.2,7.7.2,9,0,1.3,0,1.7-.5,1.7-1.6v-32.9h-22.6v-29.3h32.3v62.3ZM638,62.3v4.2h13.3v-4.2h-13.3ZM651.3,77.5v-4.6h-13.3v4.6h13.3Z" style="fill: #ff7f00; stroke-width: 0px;"/>
          <path d="M745.7,61.4v9.3h-59v11.5c0,13.3-1.2,33.9-8.9,46.8-1.9-1.6-6.3-4.7-8.6-5.7,6.9-11.8,7.5-29.2,7.5-41.2v-20.7h30.8c-.7-2.5-1.8-5-2.9-7.2l9.8-2.1c1.7,2.8,3.2,6.3,4.1,9.2h27.2ZM718.5,80.8h25.2v8.8h-25.2v7.6h21.3v30.9h-10v-3.2h-28.9v3.2h-9.6v-30.9h17.1v-24h10.1v7.7ZM729.8,106.2h-28.9v10h28.9v-10Z" style="fill: #ff7f00; stroke-width: 0px;"/>
        </g>
        <g>
          <g>
            <path d="M573.5,221.6c-3.5,0-6.6-.3-9.3-.8-1.6-.3-2.9-1.6-3.2-3.2l-1.3-6.8c-.2-.9,0-1.8.3-2.6-2.3-2.2-5.1-4.4-8.6-6.8-.5-.4-.9-.8-1.2-1.4v17.5c0,2.2-1.8,4-4,4h-8.2c-2.2,0-4-1.8-4-4v-17.5c-1.8.6-3.5,1.1-5.1,1.6-.4.1-.8.2-1.1.2-.7,0-1.4-.2-2-.5-.9-.5-1.6-1.4-1.9-2.5l-2.1-8.2c-.3-1.1,0-2.2.5-3.1s1.5-1.6,2.6-1.8c.1,0,.2,0,.4,0l-1.3-.7c-1.6-.8-2.4-2.6-2-4.3,1.6-7.5,2.4-15.2,2.4-22.9,0-1.2.6-2.3,1.5-3.1.7-.6,1.6-.9,2.5-.9s.6,0,.8,0l4.9,1.1v-2.2c0-2.2,1.8-4,4-4h8.2c2.2,0,4,1.8,4,4v3.8c.5-.2,1-.3,1.6-.3h11.5v-4c0-2.2,1.8-4,4-4h8.7c2.2,0,4,1.8,4,4v4h11.8c2.2,0,4,1.8,4,4v5.8c0,2.2-1.8,4-4,4h-11.8v.2h10.5c2.2,0,4,1.8,4,4v5.8c0,1.3-.6,2.4-1.5,3.1,1.6.5,2.8,2,2.8,3.8v5.8c0,2.2-1.8,4-4,4h-4v13.9c0,4.8-2.2,7.3-4,8.7-2.4,1.7-5.8,2.5-10.4,2.5ZM568.6,196.6c.9,1.1,1.7,2.2,2.5,3.3v-3.3h-2.5ZM563.3,170.1v-.2h-8.2v.2h8.2Z" style="fill: #fff; filter: url(#j); stroke-width: 0px;"/>
            <path d="M546.2,191.5v26h-8.2v-23c-3.3,1.1-6.8,2.3-10.3,3.3l-2.1-8.2c4.2-.9,8.4-1.8,12.4-2.7v-13.9h-4.6c-.8,3.7-1.8,7.3-2.9,10.9l-4.8-2.5c1.6-7.8,2.5-15.7,2.5-23.6l7.2,1.5c-.2,2.5-.6,5.1-.9,7.7h3.5v-14.3h8.2v14.3h4.9v6h-4.9v11.8c1.9-.5,3.7-1.1,5.6-1.5l.4,3.6h23v-7h-22v-5.8h14.2v-8.2h-15.5v-5.8h15.5v-8h8.7v8h15.8v5.8h-15.8v8.2h14.5v5.8h-6.7v7h8v5.8h-8v17.9c0,2.5-.8,4.3-2.3,5.4-1.6,1.1-4.3,1.7-8,1.7s-6-.2-8.6-.7l-1.3-6.8c2.7.4,5.1.6,7.1.6s2.9-.3,3.5-.8c.6-.5.8-1.3.9-2.6v-14.7h-23.6v-3.2l-5.3,2.1ZM560.2,193.1c3.3,3.4,6.2,7,8.7,10.5l-4.5,3.4c-2.9-3-6.5-5.9-10.6-8.8l6.5-5.1Z" style="fill: url(#l); stroke-width: 0px;"/>
            <path d="M630.7,220.1c-4.9,0-8.4,0-10.5-.2-5.9-.5-9.8-3.3-11-7.8-1.3,1.9-2.7,3.7-4.2,5.5-.8.9-1.9,1.5-3.1,1.5s-1.2-.1-1.8-.4l-5.1-2.5c-1-.5-1.7-1.4-2.1-2.5-.3-1.1-.2-2.2.4-3.2,1.8-3,3.4-6.2,4.9-9.5-1.6-.4-2.8-1.8-3-3.5l-.6-6.6c-.1-1.1.3-2.2,1-3.1.8-.8,1.8-1.3,2.9-1.3s.8,0,1.1,0v-20.1h0c-2.2,0-4-1.8-4-4v-5.5c0-2.2,1.8-4,4-4h21.3v-.9c0-2.2,1.8-4,4-4h8.6c2.2,0,4,1.8,4,4v.9h21c2.2,0,4,1.8,4,4v5.5c0,2.2-1.8,4-4,4h0v20.7c0,.2,0,.4,0,.7,2.1,2.2,3.9,4.2,5.4,6.2.7.9,1,2,.8,3.1-.2,1.1-.8,2.1-1.7,2.7l-2.7,1.9c1.8,3.1,3.4,6.3,4.7,9.3.9,2,0,4.4-2,5.3l-5.3,2.4c-.5.2-1.1.3-1.6.3-1.4,0-2.7-.7-3.5-2-.4-.8-.9-1.6-1.4-2.3-.3.5-.6,1.1-1,1.5-1.9,2.4-4.9,3.6-9.3,3.9-2.1.1-5.5.2-10.3.2ZM625.7,205.7c-.1,0-.2-.2-.4-.3v.3c.1,0,.2,0,.4,0Z" style="fill: #fff; filter: url(#m); stroke-width: 0px;"/>
            <path d="M596.8,212.4c2.9-4.8,5.2-9.8,7.1-15l7.5,3.2c-2.7,5.1-5.8,9.9-9.5,14.3l-5.1-2.5ZM630.8,195.9c-10.1.5-20.5.8-31.5,1l-.6-6.6c9,0,17.8,0,26.4,0v-3.4h-21.2v-21.7h21.2v-3h-25.3v-5.5h25.3v-4.9h8.6v4.9h25v5.5h-25v3h21v21.7h-2.3c3.2,3.2,6.1,6.3,8.6,9.4l-4.2,3c-1.4-1.5-3-3-4.9-4.6-6.6.5-13.4,1-20.5,1.4,2.5,2.7,4.7,5.5,6.6,8.3l-4.5,3.2c-2.3-2.5-5.1-4.9-8.4-7.2l5.8-4.3ZM625,173.7v-3.3h-12.9v3.3h12.9ZM625,181.7v-3h-12.9v3h12.9ZM612.7,198.4h8.6v8.7c0,1.3.7,2.2,2.1,2.4,1.7.2,4,.4,6.9.4s5.3-.1,7-.4c1.3-.1,2.2-.7,2.7-1.6.5-1,.7-2.7.7-5.3l8.4,4c-.1,3.1-.8,5.3-2,6.8-1.2,1.5-3.4,2.3-6.5,2.5-2,.1-5.3.2-10.1.2s-8.2,0-10.3-.2c-5.1-.4-7.7-2.8-7.7-7.2v-10.3ZM633.6,170.4v3.3h12.7v-3.3h-12.7ZM633.6,178.6v3h12.7v-3h-12.7ZM646.2,186.9h-12.6v3.2c4-.1,8-.3,12-.4-.6-.5-1.1-.9-1.7-1.3l2.3-1.5ZM653.1,196.9c3.4,5.2,6.2,10.3,8.4,15.4l-5.3,2.4c-2.7-4.6-6.1-9.4-10.4-14.3l7.3-3.5Z" style="fill: url(#o); stroke-width: 0px;"/>
            <path d="M672.9,221.2c-.6,0-1.2-.1-1.8-.4l-5.5-2.8c-2-1-2.7-3.4-1.7-5.4,3.9-7.6,7-16,9.4-24.7.2-.7.5-1.3,1-1.8-2.8-2-5.8-3.7-8.9-5.2-1.1-.5-1.9-1.5-2.1-2.7-.3-1.2,0-2.4.7-3.4l5.1-6.6c.8-1,2-1.6,3.2-1.6s.9,0,1.4.2c-2.2-1.5-4.4-2.8-6.7-4-1.1-.6-1.8-1.6-2.1-2.8-.2-1.2,0-2.4.9-3.4l5.5-6.5c.8-.9,1.9-1.4,3.1-1.4s1.7.3,2.5.8c2.9,2.2,5.3,4.3,7.5,6.4.6-.5,1.3-.8,2.1-.9,13.6-1.3,26.5-3.6,38.2-6.8.3,0,.7-.1,1-.1,1.4,0,2.8.8,3.5,2l3.8,6.8c.6,1.1.7,2.4.2,3.6-.5,1.2-1.5,2-2.8,2.3-4.1,1-8.5,1.8-13.5,2.6v3.3h15.7c2.2,0,4,1.8,4,4v6c0,2.2-1.8,4-4,4h-15.7v1.3h11.7c2.2,0,4,1.8,4,4v28.8c0,2.2-1.8,4-4,4h-8.4c-2.2,0-4-1.8-4-4v-.2h-14.8v.2c0,2.2-1.8,4-4,4h-8.4c-2.2,0-4-1.8-4-4v-13.5c-2.8,6.3-5.7,11.6-8.6,15.9-.8,1.2-2,1.8-3.3,1.8ZM716.1,202.8v-4.7h-14.8v4.7h14.8ZM684.8,188.1c0-2.1,1.8-3.9,4-3.9h11.3v-1.3h-12.3c-.1.2-.3.4-.4.6l-3.5,4.1.9.4ZM680.9,172.3c0,0,0-.2,0-.3-.2,0-.4,0-.5-.2.2.1.3.3.5.4ZM700.1,168.9v-1.3c-3.4.3-7.2.5-11.5.7,0,0-.1,0-.2,0-.4,0-.8,0-1.1-.2l-.7.7h13.6Z" style="fill: #fff; filter: url(#p); stroke-width: 0px;"/>
            <path d="M680.4,185.6c-4-3.2-8.4-6-13.2-8.3l5.1-6.6c5.2,3.7,9.2,7.1,12.1,10.3l-3.9,4.6ZM667.5,214.4c4-7.9,7.2-16.5,9.7-25.5l7.9,3.7c-4,10.3-8.1,18.6-12.1,24.6l-5.5-2.8ZM681.7,168.1c-3.9-3.3-8.2-6.3-12.9-8.7l5.5-6.5c5.1,3.9,8.9,7.5,11.7,10.8l-4.2,4.4ZM686.7,159.2c13.6-1.3,26.6-3.6,38.9-6.9l3.8,6.8c-5.1,1.2-10.7,2.2-16.6,3v10.8h19.7v6h-19.7v9.3h15.7v28.8h-8.4v-4.2h-22.8v4.2h-8.4v-28.8h15.3v-9.3h-19.3v-6h19.3v-9.7c-5,.5-10.3.8-15.7,1.1l-1.7-5.1ZM720.1,194.1h-22.8v12.7h22.8v-12.7Z" style="fill: url(#r); stroke-width: 0px;"/>
            <path d="M775.9,221.9c-.9,0-1.8-.3-2.5-.9l-4.4-3.5c-.3-.3-.6-.6-.8-.9-9,1.5-19,2.7-29.6,3.6-.1,0-.2,0-.3,0-1,0-1.9-.3-2.6-1-.8-.7-1.3-1.7-1.4-2.8l-.4-6.7c0-1.1.3-2.1,1-2.9,0-.1.2-.2.3-.3-.3-.6-.5-1.2-.5-1.9v-5.2c0-1,.4-2,1-2.7,0-.2,0-.4,0-.6v-20.7c0-.2,0-.4,0-.6-1-.7-1.6-1.9-1.6-3.2v-5.2c0-1.4.8-2.7,1.9-3.4l-1.1-3.7c-.4-1.2-.2-2.4.5-3.4.7-1,1.8-1.6,3-1.7,10.8-.8,21.5-2.5,31.8-4.9.3,0,.6-.1.9-.1,1.4,0,2.8.8,3.5,2.1l1.6,3v-2.5c0-2.2,1.8-4,4-4h8.4c2.2,0,4,1.8,4,4v8.7h8.5c2.2,0,4,1.8,4,4,0,4.9,0,12.4,0,22.3,0,9.5-.4,16.7-1,20.7-.7,4.4-2,7.5-3.9,9.7,0,0,0,0-.1.1-2.1,2.1-5.2,3.3-9.2,3.5-.5,0-.9,0-1.4,0-2.1,0-4.3-.2-6.6-.5-1.2-.2-2.2-.9-2.8-1.8-.4.6-.8,1.1-1.2,1.7-.7.9-1.6,1.4-2.7,1.6-.2,0-.3,0-.5,0ZM787,206.2c.2,0,.4,0,.6,0,.1,0,.2,0,.3,0,.2-.7.5-1.9.6-4,0-.2,0-.4,0-.6-.5,1.6-1.1,3.1-1.7,4.6h0Z" style="fill: #fff; filter: url(#s); stroke-width: 0px;"/>
            <path d="M738.8,158.2c11.3-.8,22.1-2.5,32.4-5l3.1,5.8c-4,.8-8.3,1.6-12.9,2.3v5.2h13.5v5.2h-13.5v3.8h12.8v20.7h-12.8v3.2h13v5.2h-13v3.4c4.3-.4,8.5-.8,12.7-1.3l.2,2c4-9.5,6-21.2,6-35.2v-3h-4.3v-5.9h4.3v-12.7h8.4v12.7h12.5c0,5,0,12.4,0,22.3,0,9.9-.4,16.6-.9,20.2-.6,3.6-1.5,6-2.9,7.5-1.4,1.4-3.6,2.2-6.5,2.3-2.3,0-4.7,0-7.2-.4l-1.1-6.8c1.9.4,3.7.5,5.3.4,1.9,0,3.1-.7,3.7-1.9.5-1.2.9-3.1,1.1-5.8.2-2.7.4-7.3.4-13.9v-18.1c0,0-4.3,0-4.3,0v3c0,18.1-4.3,32.9-12.9,44.4l-4.4-3.5c.5-.9.9-1.8,1.4-2.7-10.6,2-22.2,3.5-34.7,4.5l-.4-6.7c5.3-.2,10.4-.5,15.4-.8v-4.1h-14.6v-5.2h14.6v-3.2h-13.6v-20.7h13.6v-3.8h-15.1v-5.2h15.1v-4.4c-4.1.4-8.5.6-13.1.8l-1.4-4.6ZM753.3,183.4v-3.2h-6v3.2h6ZM753.3,191.4v-3.2h-6v3.2h6ZM761.4,180.2v3.2h5.2v-3.2h-5.2ZM761.4,188.2v3.2h5.2v-3.2h-5.2Z" style="fill: url(#u); stroke-width: 0px;"/>
          </g>
          <path d="M493.2,211.7H133.7c-5.9-5.9-9.1-9.1-15-15v-26.4c5.9-5.9,9.1-9.1,15-15h359.4c5.9,5.9,9.1,9.1,15,15v26.4c-5.9,5.9-9.1,9.1-15,15Z" style="fill: red; stroke-width: 0px;"/>
          <g>
            <path d="M135.3,194.7c7.1-6.7,11.7-11.3,11.7-15.3s-1.5-4.3-4.1-4.3-3.6,1.3-5,2.8l-2.9-2.9c2.5-2.7,4.9-4.1,8.6-4.1s8.5,3.3,8.5,8.2-4.2,9.4-9.1,14.4c1.4-.1,3.1-.3,4.4-.3h5.9v4.5h-18.1v-3.1Z" style="fill: #fff; stroke-width: 0px;"/>
            <path d="M156.9,184.5c0-8.9,3.6-13.6,9.2-13.6s9.1,4.7,9.1,13.6-3.6,13.8-9.1,13.8-9.2-4.9-9.2-13.8ZM170.2,184.5c0-7.3-1.7-9.4-4.1-9.4s-4.1,2-4.1,9.4,1.8,9.6,4.1,9.6,4.1-2.3,4.1-9.6Z" style="fill: #fff; stroke-width: 0px;"/>
            <path d="M178.4,194.7c7.1-6.7,11.7-11.3,11.7-15.3s-1.5-4.3-4.1-4.3-3.6,1.3-5,2.8l-2.9-2.9c2.5-2.7,4.9-4.1,8.6-4.1s8.5,3.3,8.5,8.2-4.2,9.4-9.1,14.4c1.4-.1,3.1-.3,4.4-.3h5.9v4.5h-18.1v-3.1Z" style="fill: #fff; stroke-width: 0px;"/>
            <path d="M210.7,191.2h-11.6v-3.7l10.1-16.1h6.5v15.7h3.2v4.1h-3.2v6.5h-5v-6.5ZM210.7,187.1v-5.3c0-1.6.1-4.1.2-5.6h-.1c-.7,1.4-1.4,2.8-2.2,4.2l-4.2,6.7h6.3Z" style="fill: #fff; stroke-width: 0px;"/>
            <path d="M229.6,168.3h3.5l-9.1,36.2h-3.6l9.1-36.2Z" style="fill: #fff; stroke-width: 0px;"/>
            <path d="M237.2,193.4h5.8v-16.4h-4.9v-3.3c2.7-.5,4.6-1.2,6.3-2.3h4v22h5.1v4.4h-16.3v-4.4Z" style="fill: #fff; stroke-width: 0px;"/>
            <path d="M265.3,168.3h3.5l-9.1,36.2h-3.6l9.1-36.2Z" style="fill: #fff; stroke-width: 0px;"/>
            <path d="M270.9,194.5l2.5-3.4c1.6,1.6,3.6,2.8,6,2.8s4.6-1.3,4.6-3.6-1.6-4.1-7.5-4.1v-3.9c5,0,6.6-1.6,6.6-3.9s-1.3-3.3-3.6-3.3-3.5.9-5.1,2.4l-2.7-3.3c2.3-2,4.9-3.4,8.1-3.4,5.2,0,8.8,2.6,8.8,7.1s-1.7,4.8-4.5,6v.2c3,.8,5.4,3,5.4,6.5s-4.4,7.6-9.5,7.6-7.2-1.6-9.1-3.8Z" style="fill: #fff; stroke-width: 0px;"/>
            <path d="M298.6,184.4c-1.1,0-2.2.8-3,2.4l-2.8-2.1c1.9-3,4-4.1,6-4.1,3.4,0,4.9,3.2,7.2,3.2s2.2-.8,3-2.4l2.8,2.2c-1.9,3-4,4.1-5.9,4.1-3.4,0-4.9-3.2-7.2-3.2Z" style="fill: #fff; stroke-width: 0px;"/>
            <path d="M314.6,194.7c7.1-6.7,11.7-11.3,11.7-15.3s-1.5-4.3-4.1-4.3-3.6,1.3-5,2.8l-2.9-2.9c2.5-2.7,4.9-4.1,8.6-4.1s8.5,3.3,8.5,8.2-4.2,9.4-9.1,14.4c1.4-.1,3.1-.3,4.4-.3h5.9v4.5h-18.1v-3.1Z" style="fill: #fff; stroke-width: 0px;"/>
            <path d="M336.2,184.5c0-8.9,3.6-13.6,9.2-13.6s9.1,4.7,9.1,13.6-3.6,13.8-9.1,13.8-9.2-4.9-9.2-13.8ZM349.4,184.5c0-7.3-1.7-9.4-4.1-9.4s-4.1,2-4.1,9.4,1.8,9.6,4.1,9.6,4.1-2.3,4.1-9.6Z" style="fill: #fff; stroke-width: 0px;"/>
            <path d="M357.7,194.7c7.1-6.7,11.7-11.3,11.7-15.3s-1.5-4.3-4.1-4.3-3.6,1.3-5,2.8l-2.9-2.9c2.5-2.7,4.9-4.1,8.6-4.1s8.5,3.3,8.5,8.2-4.2,9.4-9.1,14.4c1.4-.1,3.1-.3,4.4-.3h5.9v4.5h-18.1v-3.1Z" style="fill: #fff; stroke-width: 0px;"/>
            <path d="M390,191.2h-11.6v-3.7l10.1-16.1h6.5v15.7h3.2v4.1h-3.2v6.5h-5v-6.5ZM390,187.1v-5.3c0-1.6.1-4.1.2-5.6h-.1c-.7,1.4-1.4,2.8-2.2,4.2l-4.2,6.7h6.3Z" style="fill: #fff; stroke-width: 0px;"/>
            <path d="M408.9,168.3h3.5l-9.1,36.2h-3.6l9.1-36.2Z" style="fill: #fff; stroke-width: 0px;"/>
            <path d="M414.4,194.5l2.5-3.4c1.6,1.6,3.6,2.8,6,2.8s4.6-1.3,4.6-3.6-1.6-4.1-7.5-4.1v-3.9c5,0,6.6-1.6,6.6-3.9s-1.3-3.3-3.6-3.3-3.5.9-5.1,2.4l-2.7-3.3c2.3-2,4.9-3.4,8.1-3.4,5.2,0,8.8,2.6,8.8,7.1s-1.7,4.8-4.5,6v.2c3,.8,5.4,3,5.4,6.5s-4.4,7.6-9.5,7.6-7.2-1.6-9.1-3.8Z" style="fill: #fff; stroke-width: 0px;"/>
            <path d="M444.6,168.3h3.5l-9.1,36.2h-3.6l9.1-36.2Z" style="fill: #fff; stroke-width: 0px;"/>
            <path d="M450.1,194.5l2.5-3.4c1.6,1.6,3.6,2.8,6,2.8s4.6-1.3,4.6-3.6-1.6-4.1-7.5-4.1v-3.9c5,0,6.6-1.6,6.6-3.9s-1.3-3.3-3.6-3.3-3.5.9-5.1,2.4l-2.7-3.3c2.3-2,4.9-3.4,8.1-3.4,5.2,0,8.8,2.6,8.8,7.1s-1.7,4.8-4.5,6v.2c3,.8,5.4,3,5.4,6.5s-4.4,7.6-9.5,7.6-7.2-1.6-9.1-3.8Z" style="fill: #fff; stroke-width: 0px;"/>
            <path d="M473.7,193.4h5.8v-16.4h-4.9v-3.3c2.7-.5,4.6-1.2,6.3-2.3h4v22h5.1v4.4h-16.3v-4.4Z" style="fill: #fff; stroke-width: 0px;"/>
          </g>
        </g>
      </g>
    </g>
  </g>
</svg>